<?xml version="1.0" encoding="UTF-8"?>
<svg width="72px" height="58px" viewBox="0 0 72 58" version="1.1" xmlns="http://www.w3.org/2000/svg" xmlns:xlink="http://www.w3.org/1999/xlink">
    <defs>
        <linearGradient x1="255.671176%" y1="33.825415%" x2="235.442526%" y2="92.853653%" id="linearGradient-1">
            <stop stop-color="#D51320" offset="0%"></stop>
            <stop stop-color="#FF1900" offset="85.2660042%"></stop>
            <stop stop-color="#FF3F3F" offset="100%"></stop>
        </linearGradient>
        <linearGradient x1="255.671176%" y1="33.825415%" x2="235.442526%" y2="92.853653%" id="linearGradient-2">
            <stop stop-color="#D51320" offset="0%"></stop>
            <stop stop-color="#FF1900" offset="85.2660042%"></stop>
            <stop stop-color="#FF3F3F" offset="100%"></stop>
        </linearGradient>
        <linearGradient x1="255.671176%" y1="33.825415%" x2="235.442526%" y2="92.853653%" id="linearGradient-3">
            <stop stop-color="#D51320" offset="0%"></stop>
            <stop stop-color="#FF1900" offset="85.2660042%"></stop>
            <stop stop-color="#FF3F3F" offset="100%"></stop>
        </linearGradient>
        <linearGradient x1="255.671176%" y1="33.825415%" x2="235.442526%" y2="92.853653%" id="linearGradient-4">
            <stop stop-color="#D51320" offset="0%"></stop>
            <stop stop-color="#FF1900" offset="85.2660042%"></stop>
            <stop stop-color="#FF3F3F" offset="100%"></stop>
        </linearGradient>
        <linearGradient x1="255.671176%" y1="33.825415%" x2="235.442526%" y2="92.853653%" id="linearGradient-5">
            <stop stop-color="#D51320" offset="0%"></stop>
            <stop stop-color="#FF1900" offset="85.2660042%"></stop>
            <stop stop-color="#FF3F3F" offset="100%"></stop>
        </linearGradient>
        <linearGradient x1="255.671176%" y1="33.825415%" x2="235.442526%" y2="92.853653%" id="linearGradient-6">
            <stop stop-color="#D51320" offset="0%"></stop>
            <stop stop-color="#FF1900" offset="85.2660042%"></stop>
            <stop stop-color="#FF3F3F" offset="100%"></stop>
        </linearGradient>
        <linearGradient x1="255.671176%" y1="33.825415%" x2="235.442526%" y2="92.853653%" id="linearGradient-7">
            <stop stop-color="#D51320" offset="0%"></stop>
            <stop stop-color="#FF1900" offset="85.2660042%"></stop>
            <stop stop-color="#FF3F3F" offset="100%"></stop>
        </linearGradient>
        <linearGradient x1="255.671176%" y1="33.825415%" x2="235.442526%" y2="92.853653%" id="linearGradient-8">
            <stop stop-color="#D51320" offset="0%"></stop>
            <stop stop-color="#FF1900" offset="85.2660042%"></stop>
            <stop stop-color="#FF3F3F" offset="100%"></stop>
        </linearGradient>
        <linearGradient x1="255.671176%" y1="33.825415%" x2="235.442526%" y2="92.853653%" id="linearGradient-9">
            <stop stop-color="#D51320" offset="0%"></stop>
            <stop stop-color="#FF1900" offset="85.2660042%"></stop>
            <stop stop-color="#FF3F3F" offset="100%"></stop>
        </linearGradient>
    </defs>
    <g id="Page-1" stroke="none" stroke-width="1" fill="none" fill-rule="evenodd">
        <g id="Landing-Page" transform="translate(-250.000000, -18.000000)">
            <g id="header" transform="translate(250.000000, 18.000000)">
                <g id="logo">
                    <g id="Group" transform="translate(0.000000, 37.072319)">
                        <g transform="translate(0.588794, 0.000000)" id="Shape">
                            <path d="M6.26651316,4.04308001 C6.26651316,2.86205962 5.94267082,1.91792277 5.29468822,1.21406673 C4.64670561,0.510210693 3.78243088,0.158437098 2.70245987,0.158437098 C2.44445852,0.158437098 2.15994202,0.18839499 1.84622906,0.248310773 C1.53013272,0.305755803 1.33290767,0.335713695 1.25097883,0.335713695 C1.04570986,0.335713695 0.87440411,0.28660746 0.742722132,0.191174588 L0.510938009,6.22435427e-17 L0.279153885,0.191174588 L0.279153885,2.6217788 L0.742722132,2.76384715 L0.818990426,2.46087095 C1.10618823,1.44878835 1.73063492,0.941357259 2.68666995,0.941357259 C3.25331956,0.941357259 3.7219525,1.17329929 4.09852722,1.6368745 C4.47510194,2.10075856 4.69914006,2.72833007 4.77034367,3.51680942 L2.03868735,3.51680942 C1.84384568,3.65578933 1.74642484,3.9312784 1.74642484,4.34883582 L4.77034367,4.34883582 C4.71761129,5.20001056 4.50161709,5.8739087 4.12236106,6.37022141 C3.74042373,6.86406335 3.24795695,7.1123741 2.63930018,7.1123741 C2.23889162,7.1123741 1.90432405,7.01416167 1.63857671,6.81773671 C1.36985012,6.62131178 1.23518891,6.34582271 1.23518891,5.99374027 C1.23518891,5.80287453 1.25634145,5.62281833 1.29864652,5.45913088 C1.33827028,5.29266383 1.3591249,5.18920101 1.3591249,5.14534513 C1.3591249,5.03910271 1.26140614,4.98721688 1.06686239,4.98721688 C0.766555975,4.98721688 0.516300623,5.09098854 0.31103165,5.29822303 C0.105464755,5.50545752 6.22435427e-17,5.75932749 6.22435427e-17,6.0567445 C6.22435427e-17,6.63212132 0.265747349,7.08519581 0.795454507,7.41535032 C1.32486375,7.74797558 1.97046297,7.91166304 2.73403971,7.91166304 C3.75085104,7.91166304 4.59665454,7.54630027 5.26310837,6.81773671 C5.93194559,6.08670239 6.26651316,5.16171387 6.26651316,4.04308001 L6.26651316,4.04308001 Z M10.5732886,7.70442857 L10.7127166,7.25691325 L10.4365419,7.17784914 C10.107337,7.07160667 9.89104486,6.94590708 9.78855931,6.80136797 C9.68547794,6.65682886 9.63304345,6.38936975 9.63304345,5.99374027 L9.63304345,3.08566286 C9.63304345,2.1143477 9.82788512,1.34779629 10.2202498,0.782920159 L10.3888743,0.542948183 L10.2202498,0.335713695 L7.36495538,0.335713695 L7.22552744,0.782920159 L7.50199997,0.878661877 C7.84193015,0.974094752 8.06805378,1.10504471 8.18156242,1.27151176 C8.29477323,1.43519921 8.35257024,1.72705702 8.35257024,2.14152599 L8.35257024,5.8983074 C8.35257024,6.31308522 8.29477323,6.60216343 8.18156242,6.76060053 C8.06805378,6.92150838 7.84193015,7.04967878 7.50199997,7.14511162 L7.22552744,7.24054446 L7.36495538,7.70442857 L10.5732886,7.70442857 Z M14.7117375,7.36871482 L14.4796554,6.95424587 C14.3137123,7.07963665 14.1400232,7.14511162 13.9553109,7.14511162 C13.800093,7.14511162 13.6392146,7.01138209 13.4762506,6.74423179 L12.3644019,4.87541525 C12.1907127,4.47978578 11.895471,4.17680958 11.4846352,3.96401589 L13.1205305,1.62884455 C13.3996845,1.22487628 13.7500419,0.974094752 14.171603,0.878661877 L14.4480756,0.799288906 L14.2952411,0.335713695 L11.9639933,0.335713695 L11.7322092,0.559316928 L11.8403553,0.799288906 C11.911261,0.957726005 11.9482034,1.12944341 11.9482034,1.3094996 C11.9482034,1.56614917 11.8507826,1.84688859 11.6559409,2.15789474 L10.5286001,3.77315015 L10.2652362,3.77315015 C10.1019744,3.77315015 10.0173642,3.87414221 10.0173642,4.07581751 C10.0173642,4.17155922 10.0385167,4.231475 10.0805239,4.25062335 C10.3465691,4.37879371 10.567926,4.58077785 10.7442964,4.85904652 L11.7322092,6.56942594 C11.9902106,7.02775082 12.2485098,7.36624408 12.5121717,7.58428811 C12.7728544,7.80264099 13.099378,7.91166304 13.4920406,7.91166304 C13.9553109,7.91166304 14.36138,7.73160685 14.7117375,7.36871482 L14.7117375,7.36871482 Z M16.8398017,4.04308001 C16.8398017,3.11562075 17.0507312,2.36543807 17.4719944,1.7897524 C17.8935556,1.21406673 18.4387547,0.927768116 19.1078899,0.927768116 C19.6322344,0.927768116 20.0666062,1.11029506 20.403855,1.47874625 C20.7434873,1.84441783 20.9702068,2.25085686 21.0834175,2.69281298 C21.1966282,3.13476909 21.2547232,3.59031435 21.2547232,4.05944876 C21.2547232,4.97609848 21.046475,5.71300085 20.6278931,6.27478853 C20.2113968,6.83410546 19.6742415,7.1123741 19.0158316,7.1123741 C18.3571237,7.1123741 17.8303958,6.83688506 17.4326686,6.28034773 C17.0376226,5.72659 16.8398017,4.98165768 16.8398017,4.04308001 L16.8398017,4.04308001 Z M22.7666826,4.02671127 C22.7666826,2.83457249 22.4294338,1.89074447 21.754936,1.19769798 C21.0807362,0.504651497 20.1771356,0.158437098 19.0474115,0.158437098 C17.9144102,0.158437098 17.0164701,0.504651497 16.3526976,1.19769798 C15.6889251,1.89074447 15.3570388,2.83457249 15.3570388,4.02671127 C15.3570388,5.21082011 15.6889251,6.15495697 16.3526976,6.8560334 C17.0164701,7.55988941 17.9144102,7.91166304 19.0474115,7.91166304 C20.1771356,7.91166304 21.0807362,7.55988941 21.754936,6.8560334 C22.4294338,6.15495697 22.7666826,5.21082011 22.7666826,4.02671127 Z" fill="url(#linearGradient-1)"></path>
                            <path d="M27.7079928,6.87128598 L28.7081199,5.01602957 C28.8105676,4.80477991 28.9418194,4.64503961 29.1072204,4.53926148 C29.3225091,4.51749264 29.4956308,4.4662899 29.6298522,4.37952117 C29.7634796,4.29551188 29.8291055,4.19525261 29.8291055,4.07874336 C29.8291055,3.91103137 29.7688247,3.82426264 29.6455906,3.82426264 L29.4300049,3.88926254 C29.2963775,3.91900305 29.1490904,3.93525303 28.9839863,3.93525303 C28.500552,3.93525303 28.1278799,3.80525324 27.8600312,3.54801309 C27.5951519,3.28801351 27.4609305,2.93603296 27.4609305,2.49176481 C27.4609305,2.02603444 27.618611,1.6574973 27.9390198,1.38124775 C28.2567561,1.1049982 28.7265308,0.969786157 29.3539858,0.969786157 C30.0708227,0.969786157 30.4304289,1.17551695 30.4304289,1.58728515 L30.4304289,4.96727965 C30.4304289,5.97201858 30.2311756,6.73024847 29.8291055,7.23675705 L29.6770672,7.49154438 L29.8291055,7.69727522 L32.7225847,7.69727522 L32.8618542,7.23675705 L32.5518386,7.14201667 C32.2133158,7.04727629 31.9900095,6.91727647 31.8825136,6.75201731 C31.7747209,6.58951758 31.7221607,6.29425862 31.7221607,5.87175931 L31.7221607,1.6197851 C31.7221607,1.40853544 31.8195603,1.30275731 32.0137655,1.30275731 L32.7828656,1.30275731 L32.9378734,0.793489274 C32.5571837,0.636508398 32.039897,0.498536924 31.3836379,0.38202768 C30.7270818,0.265518435 30.0916092,0.2060374 29.47722,0.2060374 C27.2195103,0.2060374 26.0905071,0.937286207 26.0905071,2.3970244 C26.0905071,2.92499524 26.250563,3.36926338 26.5682994,3.72952223 C26.8860357,4.08978108 27.3376964,4.33874294 27.9232814,4.47426158 C27.6450395,4.62327078 27.3902565,4.90503918 27.1538844,5.31650078 L26.3533077,6.74404562 C26.1902823,7.00925747 26.0248812,7.14201667 25.8621526,7.14201667 C25.6759651,7.14201667 25.5025464,7.07701677 25.3371453,6.95253585 L25.1218567,7.36399745 C25.4710697,7.7242563 25.8698734,7.90300599 26.321831,7.90300599 C26.6707471,7.90300599 26.9385958,7.83279382 27.1224078,7.68899688 C27.3062197,7.54550661 27.5030975,7.27477587 27.7079928,6.87128598 L27.7079928,6.87128598 Z M37.1676268,7.69727522 L37.3196652,7.23675705 L37.0283573,7.14201667 C36.6895376,7.04727629 36.4641526,6.9200359 36.3510148,6.76029559 C36.2381739,6.60300812 36.1829412,6.31602745 36.1829412,5.90425926 L36.1829412,2.25353406 C36.1829412,1.83103475 36.2355013,1.55478521 36.3429971,1.42723824 C36.4507899,1.30275731 36.6791443,1.23775742 37.0283573,1.23775742 L37.1833652,1.23775742 C37.6531398,1.23775742 37.9785968,1.31624786 38.1600332,1.46801647 C38.338797,1.62223793 38.4854902,1.9472374 38.5983312,2.44301489 L38.7061239,2.74624553 L39.1367012,2.60275519 L39.1367012,0.189787427 L38.9214126,7.78044283e-16 L38.7061239,0.189787427 C38.4593586,0.370989962 37.9578103,0.460518118 37.1991035,0.460518118 L34.3056243,0.460518118 L34.1509134,0.666248915 L34.3056243,0.921036239 C34.7047249,1.44900707 34.9069477,2.20723698 34.9069477,3.19051367 L34.9069477,5.11076998 C34.9069477,5.63904742 34.8624052,6.05050902 34.7759928,6.34024911 C34.6889865,6.63029581 34.5316031,6.93076701 34.3056243,7.23675705 L34.1509134,7.47529444 L34.3056243,7.69727522 L37.1676268,7.69727522 Z M41.4131186,4.06249339 C41.4131186,3.14176375 41.6233591,2.3970244 42.0432462,1.8255159 C42.4634302,1.25400739 43.0068484,0.969786157 43.6737978,0.969786157 C44.1961325,0.969786157 44.6293823,1.15098869 44.9655296,1.5167664 C45.3040523,1.87978468 45.5300312,2.28327459 45.6428721,2.72202387 C45.7557131,3.16077316 45.8133213,3.61301299 45.8133213,4.07874336 C45.8133213,4.98874188 45.6060503,5.72029729 45.1888358,6.27800864 C44.7736999,6.83326718 44.2382994,7.10951672 43.5820402,7.10951672 C42.9254842,7.10951672 42.4004769,6.83602661 42.0040488,6.28352751 C41.6102933,5.73378784 41.4131186,4.99426074 41.4131186,4.06249339 L41.4131186,4.06249339 Z M47.3206387,4.04624341 C47.3206387,2.86275477 46.9844914,1.92577517 46.312197,1.23775742 C45.6401996,0.549739671 44.7395507,0.2060374 43.6135169,0.2060374 C42.4842167,0.2060374 41.588913,0.549739671 40.9273087,1.23775742 C40.2657045,1.92577517 39.9349024,2.86275477 39.9349024,4.04624341 C39.9349024,5.22176036 40.2657045,6.15904658 40.9273087,6.85503601 C41.588913,7.55378488 42.4842167,7.90300599 43.6135169,7.90300599 C44.7395507,7.90300599 45.6401996,7.55378488 46.312197,6.85503601 C46.9844914,6.15904658 47.3206387,5.22176036 47.3206387,4.04624341 Z M50.8727526,1.73077548 C50.8727526,1.51952583 50.9410511,1.3760355 51.0803205,1.30275731 C51.2192931,1.22702631 51.426861,1.19176693 51.7021335,1.19176693 L52.3955114,1.19176693 C52.7447244,1.19176693 52.9730788,1.25676682 53.0808716,1.38952604 C53.1883674,1.52228526 53.2409276,1.79301595 53.2409276,2.20723698 L53.2409276,5.90425926 C53.2409276,6.32675857 53.1883674,6.60576754 53.0808716,6.73576734 C52.9730788,6.86852655 52.7447244,6.93628588 52.3955114,6.93628588 L49.6255633,6.93628588 C50.4579137,6.405249 50.8727526,4.67202069 50.8727526,1.73077548 L50.8727526,1.73077548 Z M55.8113253,10.1727901 L55.8113253,7.12576666 C55.4306356,7.12576666 55.1232926,7.05524796 54.8869205,6.91175761 C54.653518,6.76826728 54.5353319,6.5542582 54.5353319,6.27003696 L54.5353319,3.11202323 C54.5353319,2.55124585 54.5745293,2.10452488 54.6561905,1.76848769 C54.7402273,1.43551653 54.8869205,1.12124817 55.1025061,0.825989224 L55.2886936,0.60400845 L55.1025061,0.38202768 L49.1032285,0.38202768 L48.9508933,0.825989224 L49.2579394,0.921036239 C49.5231156,0.994007815 49.6885167,1.09150766 49.7487975,1.2080169 C49.8120478,1.32176671 49.840852,1.60353512 49.840852,2.04749667 C49.840852,2.7247833 49.8331313,3.28249466 49.8120478,3.72124394 C49.7909643,4.15999323 49.7410768,4.60426137 49.6647607,5.05404837 C49.5887416,5.50352877 49.4785731,5.85826877 49.3339586,6.11826834 C49.1899379,6.37826792 48.9927632,6.60024869 48.7433253,6.78451725 C48.4915119,6.96878582 48.1817932,7.08253564 47.8114967,7.12576666 L47.8114967,10.1565401 L48.2578124,10.3325304 L48.3495699,10.0292997 C48.5755487,9.16253223 48.8169689,8.55576439 49.0741274,8.21175548 C49.3289104,7.86805324 49.7384043,7.69727522 50.3029059,7.69727522 L53.3487203,7.69727522 C53.912925,7.69727522 54.3307335,7.87326551 54.6033334,8.22800549 C54.8738547,8.58305207 55.1075542,9.18430111 55.3047289,10.0292997 L55.3807481,10.3460209 L55.8113253,10.1727901 Z M67.1797529,7.69727522 L67.3187254,7.25300706 L67.0434529,7.17451662 C66.7257166,7.07701677 66.5128035,6.9577481 66.4106528,6.80904552 C66.3079082,6.66003632 66.2580206,6.39175846 66.2580206,5.99899966 L66.2580206,3.11202323 C66.2580206,2.55124585 66.3001875,2.10452488 66.3895694,1.76848769 C66.4762788,1.43551653 66.6309896,1.12124817 66.8566714,0.825989224 L67.0116793,0.587758477 L66.8566714,0.38202768 L63.9661618,0.38202768 L63.8271892,0.825989224 L64.1342354,0.921036239 C64.4730552,1.01577665 64.6957675,1.14577644 64.8038572,1.3110356 C64.9113531,1.47353534 64.9662888,1.76327543 64.9662888,2.17473703 L64.9662888,5.90425926 C64.9662888,6.31602745 64.9113531,6.60300812 64.8038572,6.76029559 C64.6957675,6.9200359 64.4730552,7.04727629 64.1342354,7.14201667 L63.8271892,7.23675705 L63.9661618,7.69727522 L67.1797529,7.69727522 Z M60.2747783,7.69727522 C61.3512215,7.69727522 62.1440776,7.50503492 62.6586916,7.11779499 C63.1706332,6.73300791 63.4277917,6.1995182 63.4277917,5.52253818 C63.4277917,4.91025144 63.1733057,4.39577115 62.6664123,3.98400295 C62.1571434,3.57254135 61.4637655,3.36374453 60.5818245,3.36374453 C60.2222182,3.36374453 59.9044819,3.40728219 59.6262399,3.49129148 C59.3503735,3.57499418 59.211401,3.7077534 59.211401,3.88926254 C59.211401,4.07874336 59.2693062,4.17379038 59.3818502,4.17379038 C59.4029336,4.17379038 59.5053813,4.14926211 59.6891932,4.10327162 C59.8730052,4.0545217 60.0882939,4.02999344 60.3350591,4.02999344 C60.8075064,4.02999344 61.1935411,4.17103095 61.4955391,4.45249275 C61.7999127,4.73150173 61.9498724,5.07275118 61.9498724,5.47654769 C61.9498724,5.92050923 61.8129785,6.28352751 61.5427541,6.56253648 C61.2698572,6.84399829 60.9256924,6.98227637 60.5028358,6.98227637 C60.2774509,6.98227637 60.093342,6.96602639 59.9490244,6.93628588 C59.8070824,6.90378593 59.6393057,6.83050774 59.4501487,6.7139985 C59.2612885,6.59779586 59.116674,6.39451789 59.0195714,6.10201837 C58.9227657,5.81227827 58.8725812,5.43301002 58.8725812,4.96727965 L58.8725812,3.11202323 C58.8725812,2.14775594 59.0721315,1.38676661 59.4739046,0.825989224 L59.6419782,0.587758477 L59.4739046,0.38202768 L56.6121991,0.38202768 L56.4571912,0.825989224 L56.7511716,0.921036239 C57.0689079,1.01577665 57.2868691,1.14853587 57.4050551,1.31900729 C57.5229442,1.48702588 57.5811464,1.77124711 57.5811464,2.17473703 L57.5811464,5.90425926 C57.5811464,6.30529634 57.5256167,6.58951758 57.4127758,6.75201731 C57.2999349,6.91727647 57.0793012,7.04727629 56.7511716,7.14201667 L56.4571912,7.23675705 L56.6121991,7.69727522 L60.2747783,7.69727522 Z" fill="url(#linearGradient-2)"></path>
                        </g>
                        <path d="M1.20374781,17.6852977 L1.26432121,17.4980395 L1.1482222,17.4596515 C1.01311977,17.4209515 0.922853525,17.3694554 0.877720408,17.3042271 C0.832884213,17.2405593 0.810911512,17.123835 0.810911512,16.9565509 L0.810911512,15.4722167 C0.810911512,15.3005634 0.831696497,15.1882084 0.874751119,15.1364002 C0.91780574,15.0858405 1.00866584,15.0593122 1.1482222,15.0593122 L1.20998331,15.0593122 C1.39734513,15.0593122 1.52739978,15.0911461 1.59955339,15.1529414 C1.67081621,15.2156729 1.72960804,15.34769 1.77444423,15.5493047 L1.81749885,15.6725832 L1.98942041,15.614221 L1.98942041,14.6332996 L1.90331116,14.5562116 L1.81749885,14.6332996 C1.71891861,14.7069545 1.51908579,14.7434699 1.2162188,14.7434699 L0.0617611113,14.7434699 L-1.089262e-16,14.8271119 L0.0617611113,14.9304161 C0.221211672,15.145139 0.301679273,15.4534909 0.301679273,15.8532874 L0.301679273,16.6338424 C0.301679273,16.8485652 0.283863568,17.0158493 0.249419871,17.1338221 C0.214679246,17.2514827 0.15202735,17.3738248 0.0617611113,17.4980395 L-1.089262e-16,17.5951017 L0.0617611113,17.6852977 L1.20374781,17.6852977 Z M3.00105553,17.3825635 C3.00105553,17.2998577 2.95829783,17.2130947 2.87218859,17.1204019 C2.78637628,17.0280211 2.70887796,16.9818307 2.63969364,16.9818307 C2.56961853,16.9818307 2.4950895,17.0280211 2.41551269,17.1204019 C2.33593587,17.2130947 2.29614746,17.2998577 2.29614746,17.3825635 C2.29614746,17.4552821 2.33712358,17.5376758 2.4187789,17.6303686 C2.50043421,17.7227494 2.57377553,17.7689398 2.63969364,17.7689398 C2.70887796,17.7689398 2.78637628,17.7227494 2.87218859,17.6303686 C2.95829783,17.5376758 3.00105553,17.4552821 3.00105553,17.3825635 Z M5.00205613,17.6852977 L5.05728482,17.4914854 L4.94118581,17.4596515 C4.80192638,17.416582 4.70958165,17.361653 4.66474545,17.2945521 C4.61961233,17.2283875 4.59645192,17.1072938 4.59645192,16.9300226 L4.59645192,14.5880455 C4.59645192,14.1585998 4.68345195,13.8271526 4.8553735,13.5949523 L4.92871482,13.484782 L4.8553735,13.3889682 L3.60233557,13.3889682 L3.53552668,13.5949523 L3.67062911,13.6267863 C3.81285782,13.6698557 3.90935955,13.7282178 3.95864968,13.8018727 C4.00793979,13.8745914 4.031991,14.0013028 4.031991,14.181695 L4.031991,16.8913226 C4.031991,17.0763961 4.00883058,17.2031076 3.96161896,17.2723932 C3.91470427,17.3407424 3.81731175,17.3991046 3.67062911,17.4462313 L3.53552668,17.4783773 L3.60233557,17.6852977 L5.00205613,17.6852977 Z M7.00899531,17.5301854 L6.91665058,17.3560352 C6.84776318,17.4122127 6.77442187,17.4396773 6.69573583,17.4396773 C6.62655151,17.4396773 6.55321019,17.3803788 6.47482109,17.2592851 L5.75090961,15.8916753 C5.65648637,15.7200219 5.52554094,15.5933104 5.35807331,15.5109168 L6.38366407,13.9494947 C6.49768458,13.7778412 6.64555493,13.6698557 6.82460277,13.6267863 L6.9597052,13.5949523 L6.89259938,13.3889682 L5.85572534,13.3889682 L5.75090961,13.484782 L5.80019972,13.5949523 C5.84948984,13.7238485 5.87354104,13.8118599 5.87354104,13.8592987 C5.87354104,13.953864 5.83464342,14.0684037 5.75714511,14.2016692 L4.97770801,15.4082369 L4.84884107,15.4082369 C4.77134276,15.4082369 4.73155435,15.4556756 4.73155435,15.5493047 C4.73155435,15.5889411 4.74016527,15.6098516 4.75679327,15.614221 C4.89189569,15.6835065 4.99047593,15.7740147 5.05104933,15.8851213 L5.7330939,17.1821971 C5.83464342,17.3803788 5.94361615,17.5267524 6.05793359,17.6235025 C6.1719541,17.7205647 6.31537053,17.7689398 6.48729208,17.7689398 C6.68831262,17.7689398 6.86231268,17.6896671 7.00899531,17.5301854 L7.00899531,17.5301854 Z M8.51323466,19.2719997 L8.5687603,19.0912954 L8.45147358,19.0660156 C8.35408102,19.0438566 8.28905372,19.0020356 8.25876704,18.9405525 C8.22848035,18.877821 8.21274312,18.768587 8.21274312,18.614411 L8.21274312,15.2596786 C8.40129265,15.1045663 8.61389344,15.0274783 8.85054539,15.0274783 C9.10827924,15.0274783 9.31464451,15.1364002 9.46756264,15.3533077 C9.62166849,15.5702153 9.69797909,15.8532874 9.69797909,16.2009637 C9.69797909,16.5667415 9.62166849,16.8660427 9.46756264,17.0985551 C9.31464451,17.3307553 9.11035774,17.4462313 8.85678083,17.4462313 C8.75849756,17.4462313 8.66823129,17.4309386 8.58657597,17.3978562 C8.50492072,17.3660223 8.46186609,17.3494812 8.45770909,17.3494812 C8.40129265,17.3494812 8.37189676,17.3991046 8.37189676,17.4980395 C8.37189676,17.5498476 8.39060321,17.5860508 8.4274224,17.6082097 C8.58241904,17.7149469 8.77096857,17.7689398 8.9918833,17.7689398 C9.40164448,17.7689398 9.72113948,17.6138275 9.95244671,17.3011061 C10.1840509,16.989321 10.2992591,16.584219 10.2992591,16.0854877 C10.2992591,15.6460549 10.1893956,15.2961939 9.96818395,15.0340324 C9.74726916,14.7718707 9.43608824,14.6398536 9.03493792,14.6398536 C8.72791394,14.6398536 8.45355208,14.763132 8.21274312,15.0075041 L8.21274312,14.9822242 C8.21274312,14.7971506 8.16553148,14.7047698 8.07110829,14.7047698 C7.94877377,14.7047698 7.80209114,14.7312981 7.63224806,14.7852909 C7.46270191,14.8392837 7.34957219,14.8942128 7.29196811,14.9503903 L7.29196811,15.1364002 L7.58622414,15.2078704 C7.66372246,15.228781 7.70351087,15.2961939 7.70351087,15.4082369 L7.70351087,18.3172945 C7.70351087,18.6487417 7.63967129,18.9062218 7.51288283,19.0912954 L7.44488624,19.1880455 L7.51288283,19.2719997 L8.51323466,19.2719997 Z M11.3551366,16.2009637 C11.3551366,15.810218 11.4305564,15.5062353 11.581396,15.2915125 C11.7334234,15.0771018 11.9481026,14.9691161 12.2266215,14.9691161 C12.4309082,14.9691161 12.6153007,15.0274783 12.7789083,15.1429543 L12.7789083,16.7627385 C12.5817478,17.123835 12.324014,17.3042271 12.0057067,17.3042271 C11.8213142,17.3042271 11.6663176,17.2162157 11.5416076,17.0401929 C11.4168977,16.863858 11.3551366,16.584219 11.3551366,16.2009637 Z M12.7789083,17.136943 C12.7789083,17.3604046 12.8142428,17.522383 12.8855057,17.6203815 C12.9579562,17.7193164 13.0710859,17.7689398 13.2269733,17.7689398 C13.4271031,17.7689398 13.6376253,17.6422284 13.858837,17.3878691 L13.7486765,17.2340052 C13.6545503,17.3064118 13.560127,17.3429271 13.4660007,17.3429271 C13.3475263,17.3429271 13.2878436,17.2811319 13.2878436,17.1569172 L13.2878436,15.2078704 C13.2878436,15.1385849 13.3130825,15.0593122 13.361185,14.9691161 L13.4419495,14.8601942 L13.3674205,14.7818578 C13.2534,14.7731191 13.0669289,14.7478393 12.809195,14.7047698 C12.5514612,14.6620126 12.3587546,14.6398536 12.2319662,14.6398536 C11.7782596,14.6398536 11.4180854,14.7896603 11.1520375,15.0889614 C10.8859897,15.3873263 10.7529658,15.7949253 10.7529658,16.3111339 C10.7529658,16.7758466 10.8533276,17.1347583 11.0534573,17.3878691 C11.2547748,17.6422284 11.4976622,17.7689398 11.784792,17.7689398 C12.1690174,17.7689398 12.5000925,17.5585863 12.7789083,17.136943 L12.7789083,17.136943 Z M16.5896877,17.2723932 C16.5980017,17.2680238 16.6021587,17.2505464 16.6021587,17.220585 C16.6021587,17.1821971 16.5867184,17.1447454 16.5561348,17.10823 C16.5258481,17.0707785 16.4934828,17.053301 16.4608207,17.053301 C16.4326125,17.053301 16.4136091,17.0576703 16.4052951,17.0654728 C16.1769572,17.2680238 15.9192233,17.3694554 15.6323905,17.3694554 C15.3535747,17.3694554 15.1335507,17.2602214 14.9693493,17.0433139 C14.8057417,16.8264063 14.7240864,16.5324108 14.7240864,16.1625757 C14.7240864,15.7971099 14.7932707,15.5040507 14.9325302,15.2818375 C15.0717896,15.0605606 15.2561821,14.9503903 15.4845201,14.9503903 C15.6573324,14.9503903 15.7924349,14.9956444 15.8930936,15.0858405 C15.9937523,15.1760365 16.0439332,15.3005634 16.0439332,15.4591087 C16.0439332,15.5580435 16.0314622,15.6438702 16.0062233,15.7178373 C15.9821721,15.7905558 15.9590117,15.845485 15.9361482,15.8816882 C15.9141755,15.9182036 15.9025953,15.9434835 15.9025953,15.9565915 C15.9025953,15.9952916 15.937039,16.0140174 16.0062233,16.0140174 C16.1707217,16.0140174 16.3049333,15.9609609 16.4085614,15.8532874 C16.5133771,15.7453018 16.5656365,15.6054823 16.5656365,15.4338288 C16.5656365,15.2013164 16.4724009,15.0109372 16.2859299,14.8623789 C16.0994589,14.7147569 15.8574622,14.6398536 15.5590492,14.6398536 C15.1252367,14.6398536 14.7796121,14.7809216 14.5218781,15.0627453 C14.2632535,15.344569 14.1343866,15.726576 14.1343866,16.2078297 C14.1343866,16.6591222 14.2674105,17.0323904 14.5334584,17.3273223 C14.7995062,17.6213178 15.1347384,17.7689398 15.5400457,17.7689398 C15.9622779,17.7689398 16.3120596,17.6038404 16.5896877,17.2723932 L16.5896877,17.2723932 Z M18.3641319,17.6852977 L18.4187667,17.5045935 L18.3086063,17.4727596 C18.1821148,17.4331232 18.0971932,17.3847481 18.0541386,17.3242013 C18.0113809,17.2636544 17.9891113,17.1547325 17.9891113,16.9949388 L17.9891113,16.3629421 L19.3582483,16.3629421 L19.3582483,16.9565509 C19.3582483,17.123835 19.3362755,17.2405593 19.2935178,17.3042271 C19.2504632,17.3694554 19.1613847,17.4209515 19.02747,17.4596515 L18.8974153,17.4980395 L18.965412,17.6852977 L20.2362656,17.6852977 L20.2917912,17.5045935 L20.1869754,17.4727596 C20.060187,17.4331232 19.9764532,17.3847481 19.9354771,17.3242013 C19.8947979,17.2636544 19.873716,17.1547325 19.873716,16.9949388 L19.873716,15.8211414 C19.873716,15.4129183 19.9491358,15.1023816 20.1011631,14.8920281 L20.1745044,14.7949659 L20.1011631,14.7113239 L18.965412,14.7113239 L18.8974153,14.8920281 L19.02747,14.9304161 C19.1613847,14.9691161 19.2504632,15.0218605 19.2935178,15.0889614 C19.3362755,15.1551261 19.3582483,15.2730988 19.3582483,15.4403828 L19.3582483,16.0140174 L17.9891113,16.0140174 L17.9891113,15.8211414 C17.9891113,15.4160393 18.0677973,15.106751 18.222794,14.8920281 L18.2898998,14.7949659 L18.222794,14.7113239 L17.0873397,14.7113239 L17.0255786,14.8920281 L17.1428653,14.9304161 C17.2779677,14.9691161 17.3670463,15.0218605 17.4101009,15.0889614 C17.4528586,15.1551261 17.4739405,15.2730988 17.4739405,15.4403828 L17.4739405,16.9565509 C17.4739405,17.123835 17.4528586,17.2405593 17.4101009,17.3042271 C17.3670463,17.3694554 17.2779677,17.4209515 17.1428653,17.4596515 L17.0255786,17.4980395 L17.0873397,17.6852977 L18.3641319,17.6852977 Z M21.3414331,16.2078297 C21.3414331,15.8333132 21.4251669,15.5305789 21.5929315,15.2983786 C21.7603992,15.0658663 21.9771569,14.9503903 22.2435017,14.9503903 C22.4519455,14.9503903 22.6247578,15.0240453 22.7586725,15.1726035 C22.8937749,15.3202254 22.9840412,15.4843885 23.0288774,15.662596 C23.0740105,15.8411156 23.0971709,16.0249408 23.0971709,16.2143838 C23.0971709,16.584219 23.0143278,16.8816475 22.847751,17.10823 C22.6823619,17.3341884 22.4685734,17.4462313 22.2066826,17.4462313 C21.9447917,17.4462313 21.7354571,17.3351247 21.5771943,17.1104148 C21.4201192,16.8869532 21.3414331,16.5864036 21.3414331,16.2078297 Z M23.698451,16.2009637 C23.698451,15.7200219 23.5642393,15.3389513 23.2961129,15.0593122 C23.0279866,14.7796732 22.6687032,14.6398536 22.2191536,14.6398536 C21.7687131,14.6398536 21.4115083,14.7796732 21.1475389,15.0593122 C20.8835695,15.3389513 20.7517333,15.7200219 20.7517333,16.2009637 C20.7517333,16.6790965 20.8835695,17.059855 21.1475389,17.3429271 C21.4115083,17.6269356 21.7687131,17.7689398 22.2191536,17.7689398 C22.6687032,17.7689398 23.0279866,17.6269356 23.2961129,17.3429271 C23.5642393,17.059855 23.698451,16.6790965 23.698451,16.2009637 Z M25.1153933,15.2596786 C25.1153933,15.1738518 25.1427107,15.1154897 25.1982364,15.0858405 C25.253762,15.0549428 25.336605,15.0405864 25.4464685,15.0405864 L25.7232058,15.0405864 C25.8624653,15.0405864 25.9536222,15.0671146 25.9963799,15.1211075 C26.0394346,15.1751003 26.0605165,15.2849584 26.0605165,15.4534909 L26.0605165,16.9565509 C26.0605165,17.1282043 26.0394346,17.2414956 25.9963799,17.2945521 C25.9536222,17.3482328 25.8624653,17.3760094 25.7232058,17.3760094 L24.6180383,17.3760094 C24.9500042,17.1600382 25.1153933,16.4553228 25.1153933,15.2596786 L25.1153933,15.2596786 Z M27.0858103,18.691499 L27.0858103,17.4530974 C26.9340799,17.4530974 26.8114485,17.4243845 26.7173222,17.3660223 C26.6240866,17.3076601 26.576875,17.220585 26.576875,17.1051091 L26.576875,15.8211414 C26.576875,15.5933104 26.5926122,15.4116699 26.6249774,15.2752835 C26.6585303,15.1398333 26.7173222,15.0118734 26.8031344,14.8920281 L26.8773665,14.801832 L26.8031344,14.7113239 L24.4095945,14.7113239 L24.3487242,14.8920281 L24.4713556,14.9304161 C24.5770621,14.9603775 24.6429802,15.0000138 24.6673284,15.0471404 C24.6922704,15.0933308 24.7038506,15.2078704 24.7038506,15.3885747 C24.7038506,15.6638444 24.7005844,15.8907391 24.6922704,16.0689465 C24.6839563,16.2474661 24.6640622,16.4278582 24.6337754,16.6107472 C24.6031918,16.793324 24.5592464,16.9378251 24.5016423,17.0433139 C24.4440382,17.1491148 24.3656491,17.2393109 24.2658811,17.3142142 C24.1655193,17.3891175 24.0417002,17.4353079 23.8941267,17.4530974 L23.8941267,18.6849449 L24.0722838,18.7567273 L24.108806,18.6331368 C24.1990723,18.2810912 24.295277,18.0342224 24.3980142,17.8944028 C24.4995638,17.7545833 24.6628745,17.6852977 24.8882431,17.6852977 L26.1032742,17.6852977 C26.3286429,17.6852977 26.4952197,17.756768 26.6041925,17.9009568 C26.7119775,18.0454579 26.8052129,18.2898299 26.883602,18.6331368 L26.9141857,18.7620329 L27.0858103,18.691499 Z M27.9950052,16.2009637 C27.9950052,15.810218 28.070425,15.5062353 28.2212646,15.2915125 C28.373292,15.0771018 28.5879712,14.9691161 28.86649,14.9691161 C29.0707768,14.9691161 29.2551693,15.0274783 29.4187769,15.1429543 L29.4187769,16.7627385 C29.2216164,17.123835 28.9638826,17.3042271 28.6455753,17.3042271 C28.4611828,17.3042271 28.3061862,17.2162157 28.1814762,17.0401929 C28.0567662,16.863858 27.9950052,16.584219 27.9950052,16.2009637 L27.9950052,16.2009637 Z M29.4187769,17.136943 C29.4187769,17.3604046 29.4541114,17.522383 29.5253742,17.6203815 C29.5978247,17.7193164 29.7109544,17.7689398 29.8668419,17.7689398 C30.0669716,17.7689398 30.2774939,17.6422284 30.4987056,17.3878691 L30.3885451,17.2340052 C30.2944188,17.3064118 30.1999956,17.3429271 30.1058693,17.3429271 C29.9873948,17.3429271 29.9277122,17.2811319 29.9277122,17.1569172 L29.9277122,15.2078704 C29.9277122,15.1385849 29.9529511,15.0593122 30.0010535,14.9691161 L30.0818181,14.8601942 L30.0072891,14.7818578 C29.8932685,14.7731191 29.7067974,14.7478393 29.4490636,14.7047698 C29.1913298,14.6620126 28.9986232,14.6398536 28.8718348,14.6398536 C28.4181282,14.6398536 28.057954,14.7896603 27.7919061,15.0889614 C27.5258583,15.3873263 27.3928343,15.7949253 27.3928343,16.3111339 C27.3928343,16.7758466 27.4931961,17.1347583 27.6933258,17.3878691 C27.8946433,17.6422284 28.1375308,17.7689398 28.4246606,17.7689398 C28.808886,17.7689398 29.1399611,17.5585863 29.4187769,17.136943 L29.4187769,17.136943 Z M31.9714705,19.2719997 L32.0269962,19.0912954 L31.9097094,19.0660156 C31.8123169,19.0438566 31.7472896,19.0020356 31.7170029,18.9405525 C31.6867161,18.877821 31.670979,18.768587 31.670979,18.614411 L31.670979,15.2596786 C31.8595285,15.1045663 32.0721292,15.0274783 32.3087812,15.0274783 C32.5665151,15.0274783 32.7728803,15.1364002 32.9257984,15.3533077 C33.0799043,15.5702153 33.1562149,15.8532874 33.1562149,16.2009637 C33.1562149,16.5667415 33.0799043,16.8660427 32.9257984,17.0985551 C32.7728803,17.3307553 32.5685936,17.4462313 32.3150167,17.4462313 C32.2167334,17.4462313 32.1264672,17.4309386 32.0448118,17.3978562 C31.9631565,17.3660223 31.9201019,17.3494812 31.9159449,17.3494812 C31.8595285,17.3494812 31.8301326,17.3991046 31.8301326,17.4980395 C31.8301326,17.5498476 31.8488391,17.5860508 31.8856582,17.6082097 C32.0406548,17.7149469 32.2292044,17.7689398 32.4501192,17.7689398 C32.8598803,17.7689398 33.1793753,17.6138275 33.4106826,17.3011061 C33.6422867,16.989321 33.757495,16.584219 33.757495,16.0854877 C33.757495,15.6460549 33.6476315,15.2961939 33.4264198,15.0340324 C33.205505,14.7718707 32.894324,14.6398536 32.4931738,14.6398536 C32.1861498,14.6398536 31.9117879,14.763132 31.670979,15.0075041 L31.670979,14.9822242 C31.670979,14.7971506 31.6237673,14.7047698 31.5293441,14.7047698 C31.4070096,14.7047698 31.2603269,14.7312981 31.0904839,14.7852909 C30.9209378,14.8392837 30.807808,14.8942128 30.750204,14.9503903 L30.750204,15.1364002 L31.04446,15.2078704 C31.1219583,15.228781 31.1617467,15.2961939 31.1617467,15.4082369 L31.1617467,18.3172945 C31.1617467,18.6487417 31.0979071,18.9062218 30.9711187,19.0912954 L30.9031221,19.1880455 L30.9711187,19.2719997 L31.9714705,19.2719997 Z" id="Shape" fill="url(#linearGradient-3)"></path>
                    </g>
                    <path d="M4.49248618,12.5552413 C3.84843329,12.5552413 3.10547977,12.7577048 2.26362562,13.163552 C1.42147178,13.5436311 0.669527293,14.04028 9.95896683e-16,14.6482839 L0.257741035,15.5182632 L1.81827309,15.5182632 C2.26362562,15.5182632 2.48660159,15.7974173 2.48660159,16.3548052 L2.48660159,27.2599157 C2.48660159,28.5774618 2.69968749,29.5241318 3.12046471,30.1063676 C3.54184134,30.6895237 4.2200599,30.9830956 5.16201347,30.9830956 C6.39976983,30.9830956 7.6878756,30.2333673 9.02453259,28.7397394 L8.39546466,27.8280403 C7.80206087,28.3335854 7.21764806,28.5878918 6.64702141,28.5878918 C5.954717,28.5878918 5.6070663,28.1820446 5.6070663,27.3715773 L5.6070663,13.620015 C5.6070663,13.2908586 5.50816567,13.0365522 5.31066411,12.8601636 C5.11256315,12.6567798 4.84013687,12.5552413 4.49248618,12.5552413 L4.49248618,12.5552413 Z" id="Path" fill="url(#linearGradient-4)"></path>
                    <path d="M28.0545253,21.0429562 C28.0545253,18.5283925 27.3734141,16.4816761 26.0156728,14.9071133 C24.6582301,13.3079431 22.9202017,12.5112801 20.7971065,12.5112801 C19.5128535,12.5112801 18.3525746,12.825639 17.3162699,13.4602011 C17.0937139,13.6382968 16.9801954,13.8659147 16.9801954,14.1455157 C16.9801954,14.3233039 17.0291876,14.491249 17.1292631,14.6431994 C17.2517436,14.7954574 17.3757178,14.8720478 17.499692,14.8720478 C17.5235906,14.8720478 17.7458479,14.8059155 18.1655678,14.6782649 C18.6091862,14.5266221 19.1188247,14.4509545 19.6861186,14.4509545 C21.1182444,14.4509545 22.2632879,15.1258111 23.1278211,16.4715256 C23.9908607,17.7923251 24.4258159,19.5452913 24.4258159,21.7282709 C24.4258159,23.9632336 23.9669621,25.7408071 23.0531379,27.0616066 C22.164706,28.3568761 20.9548375,29.0012811 19.4244285,29.0012811 C18.0415936,29.0012811 16.8574161,28.6204823 15.8692075,27.8588848 L15.8692075,3.97775836 C15.8692075,3.62310491 15.7706256,3.3431963 15.5731631,3.13895528 C15.376298,2.93625223 15.1041523,2.8350545 14.7591158,2.8350545 C14.092045,2.8350545 13.3272886,3.03775755 12.4627554,3.44470162 C11.5997158,3.85041532 10.8436227,4.35855711 10.2016456,4.96851182 L10.5380189,5.88267491 L12.0191369,5.88267491 C12.4627554,5.88267491 12.6853114,6.13613063 12.6853114,6.64458001 L12.6853114,28.7373672 C14.1906269,30.2353397 16.3480764,30.9830956 19.1627385,30.9830956 C21.7058522,30.9830956 23.8187905,30.0427872 25.497371,28.1643236 C27.1998502,26.2840144 28.0494468,23.912481 28.0494468,21.0429562 L28.0545253,21.0429562 Z" id="Path" fill="url(#linearGradient-5)"></path>
                    <path d="M40.0676314,12.5552413 C37.3422472,12.5552413 35.1811354,13.4423993 33.5857813,15.2151815 C31.9892387,16.9628091 31.1934931,19.3580129 31.1934931,22.3974187 C31.1934931,25.1319022 31.7934223,27.2445775 32.9965492,28.7397394 C34.199379,30.2333673 35.6628021,30.9830956 37.38147,30.9830956 C38.9919782,30.9830956 40.6764748,30.3447223 41.7423222,29.1547894 C42.022824,28.8406643 42.1446521,28.3596603 42.1208808,27.934487 C42.0819553,27.6154537 41.5800828,27.2494857 41.3489066,27.4065483 C40.5629667,27.964243 39.6843185,28.2483053 38.7076136,28.2483053 C37.6025434,28.2483053 36.6698155,27.7255816 35.9079441,26.6884166 C35.1713296,25.649411 34.8028739,24.0027083 34.8028739,21.7489222 C34.8028739,19.4451336 35.2554208,17.6619215 36.1631888,16.3949912 C37.0721454,15.1292879 38.3632263,14.4952093 40.0337572,14.4952093 C41.2609526,14.4952093 42.3660227,14.8351024 43.3477791,15.5182632 C43.8056745,19.0092237 43.6535379,23.5072865 43.3477791,27.2599157 C43.3477791,28.5774618 43.5539955,29.5241318 43.9714796,30.1063676 C44.4139236,30.6895237 45.1018068,30.9830956 46.0342376,30.9830956 C47.2373645,30.9830956 48.5046741,30.2333673 49.8311148,28.7397394 L49.167003,27.8280403 C48.603028,28.2584285 48.0384587,28.4765369 47.4741865,28.4765369 C46.7610463,28.4765369 46.4026934,28.1056606 46.4026934,27.3715773 L46.4026934,15.8983422 C46.4026934,15.4937221 46.5500757,15.0268291 46.8454346,14.4952093 L47.3253185,13.8470195 L46.8843601,13.3917835 C46.196477,13.3411677 45.0765497,13.1896268 43.5302241,12.9353204 C41.9824127,12.6825479 40.8286114,12.5552413 40.0676314,12.5552413 Z" id="Path" fill="url(#linearGradient-6)"></path>
                    <path d="M71.4115189,28.9461743 L70.7121408,28.0709578 C70.1462042,28.5519741 69.579076,28.7943228 69.0131394,28.7943228 C68.3492065,28.7943228 68.0141125,28.3899992 68.0141125,27.5795114 L68.0141125,19.069082 C68.0141125,16.8152386 67.6700826,15.1942629 66.9805336,14.2061548 C66.2909847,13.1935051 65.1105602,12.6864134 63.435388,12.6864134 C62.1313511,12.6864134 60.8758656,13.1778598 59.6698251,14.1659679 C58.4637845,15.1280004 57.5681155,16.3845327 56.9768608,17.9291226 L56.9768608,4.17721109 C56.9768608,3.82197076 56.8785666,3.54434339 56.6819781,3.3409545 C56.4856874,3.13848592 56.2143358,3.03755839 55.8703059,3.03755839 C55.2543287,3.03755839 54.5159305,3.2397202 53.6548133,3.64588445 C52.8184187,4.05020807 52.0645317,4.55729983 51.4005988,5.16531912 L51.6612274,6.07704128 L53.2112978,6.07704128 C53.6548133,6.07704128 53.87672,6.32982023 53.87672,6.83660523 L53.87672,26.702761 C53.87672,27.6144832 53.7772343,28.2626895 53.5806458,28.6427782 C53.4081841,28.9980185 53.0248366,29.2250288 52.4338797,29.326263 L51.6954814,29.5140067 L52.1038494,30.6189942 L58.1197547,30.6189942 L58.5281226,30.085827 L58.1197547,29.5140067 C57.3560383,28.4507398 56.9768608,26.9463369 56.9768608,24.9961963 C56.9768608,22.1346404 57.4305036,19.8142277 58.3416614,18.0404802 C59.276946,16.2679599 60.4829865,15.3820064 61.959783,15.3820064 C63.0171908,15.3820064 63.7707799,15.6857093 64.2142955,16.2940354 C64.6819378,16.9008276 64.9124824,17.8278883 64.9124824,19.069082 L64.9124824,27.4276599 C64.9124824,28.7697812 65.1105602,29.7321205 65.5034394,30.3140643 C65.9222324,30.8963149 66.6010584,31.1855995 67.5363429,31.1855995 C68.7912327,31.1855995 70.0818658,30.4413741 71.4115189,28.9461743 L71.4115189,28.9461743 Z" id="Path" fill="url(#linearGradient-7)"></path>
                    <path d="M3.77150243,1.62003114 C1.04840863,1.63094159 0.803044675,3.00267797 0.610322439,4.42959381 C0.344734544,6.44767377 2.57234186,9.49804352 3.87440659,9.51757327 C5.18182472,9.53896309 7.32972595,6.42659398 7.03528918,4.42959381 C6.81877407,2.97663823 6.48924285,1.6095518 3.77150243,1.62003114 Z" id="Path" fill="url(#linearGradient-8)"></path>
                    <polygon id="Path" fill="url(#linearGradient-9)" points="3.7201404 1.62003114 5.63317046 0.0704077925 6.27793573 1.39968083 3.7201404 1.62003114 1.17711295 1.53332525 1.74803885 -2.48974171e-16"></polygon>
                    <path d="M4.49248618,12.5552413 C3.84843329,12.5552413 3.10547977,12.7577048 2.26362562,13.163552 C1.42147178,13.5436311 0.669527293,14.04028 9.95896683e-16,14.6482839 L0.257741035,15.5182632 L1.81827309,15.5182632 C2.26362562,15.5182632 2.48660159,15.7974173 2.48660159,16.3548052 L2.48660159,27.2599157 C2.48660159,28.5774618 2.69968749,29.5241318 3.12046471,30.1063676 C3.54184134,30.6895237 4.2200599,30.9830956 5.16201347,30.9830956 C6.39976983,30.9830956 7.6878756,30.2333673 9.02453259,28.7397394 L8.39546466,27.8280403 C7.80206087,28.3335854 7.21764806,28.5878918 6.64702141,28.5878918 C5.954717,28.5878918 5.6070663,28.1820446 5.6070663,27.3715773 L5.6070663,13.620015 C5.6070663,13.2908586 5.50816567,13.0365522 5.31066411,12.8601636 C5.11256315,12.6567798 4.84013687,12.5552413 4.49248618,12.5552413 L4.49248618,12.5552413 Z" id="Path" fill="url(#linearGradient-4)"></path>
                    <path d="M28.0545253,21.0429562 C28.0545253,18.5283925 27.3734141,16.4816761 26.0156728,14.9071133 C24.6582301,13.3079431 22.9202017,12.5112801 20.7971065,12.5112801 C19.5128535,12.5112801 18.3525746,12.825639 17.3162699,13.4602011 C17.0937139,13.6382968 16.9801954,13.8659147 16.9801954,14.1455157 C16.9801954,14.3233039 17.0291876,14.491249 17.1292631,14.6431994 C17.2517436,14.7954574 17.3757178,14.8720478 17.499692,14.8720478 C17.5235906,14.8720478 17.7458479,14.8059155 18.1655678,14.6782649 C18.6091862,14.5266221 19.1188247,14.4509545 19.6861186,14.4509545 C21.1182444,14.4509545 22.2632879,15.1258111 23.1278211,16.4715256 C23.9908607,17.7923251 24.4258159,19.5452913 24.4258159,21.7282709 C24.4258159,23.9632336 23.9669621,25.7408071 23.0531379,27.0616066 C22.164706,28.3568761 20.9548375,29.0012811 19.4244285,29.0012811 C18.0415936,29.0012811 16.8574161,28.6204823 15.8692075,27.8588848 L15.8692075,3.97775836 C15.8692075,3.62310491 15.7706256,3.3431963 15.5731631,3.13895528 C15.376298,2.93625223 15.1041523,2.8350545 14.7591158,2.8350545 C14.092045,2.8350545 13.3272886,3.03775755 12.4627554,3.44470162 C11.5997158,3.85041532 10.8436227,4.35855711 10.2016456,4.96851182 L10.5380189,5.88267491 L12.0191369,5.88267491 C12.4627554,5.88267491 12.6853114,6.13613063 12.6853114,6.64458001 L12.6853114,28.7373672 C14.1906269,30.2353397 16.3480764,30.9830956 19.1627385,30.9830956 C21.7058522,30.9830956 23.8187905,30.0427872 25.497371,28.1643236 C27.1998502,26.2840144 28.0494468,23.912481 28.0494468,21.0429562 L28.0545253,21.0429562 Z" id="Path" fill="url(#linearGradient-5)"></path>
                    <path d="M40.0676314,12.5552413 C37.3422472,12.5552413 35.1811354,13.4423993 33.5857813,15.2151815 C31.9892387,16.9628091 31.1934931,19.3580129 31.1934931,22.3974187 C31.1934931,25.1319022 31.7934223,27.2445775 32.9965492,28.7397394 C34.199379,30.2333673 35.6628021,30.9830956 37.38147,30.9830956 C38.9919782,30.9830956 40.6764748,30.3447223 41.7423222,29.1547894 C42.022824,28.8406643 42.1446521,28.3596603 42.1208808,27.934487 C42.0819553,27.6154537 41.5800828,27.2494857 41.3489066,27.4065483 C40.5629667,27.964243 39.6843185,28.2483053 38.7076136,28.2483053 C37.6025434,28.2483053 36.6698155,27.7255816 35.9079441,26.6884166 C35.1713296,25.649411 34.8028739,24.0027083 34.8028739,21.7489222 C34.8028739,19.4451336 35.2554208,17.6619215 36.1631888,16.3949912 C37.0721454,15.1292879 38.3632263,14.4952093 40.0337572,14.4952093 C41.2609526,14.4952093 42.3660227,14.8351024 43.3477791,15.5182632 C43.8056745,19.0092237 43.6535379,23.5072865 43.3477791,27.2599157 C43.3477791,28.5774618 43.5539955,29.5241318 43.9714796,30.1063676 C44.4139236,30.6895237 45.1018068,30.9830956 46.0342376,30.9830956 C47.2373645,30.9830956 48.5046741,30.2333673 49.8311148,28.7397394 L49.167003,27.8280403 C48.603028,28.2584285 48.0384587,28.4765369 47.4741865,28.4765369 C46.7610463,28.4765369 46.4026934,28.1056606 46.4026934,27.3715773 L46.4026934,15.8983422 C46.4026934,15.4937221 46.5500757,15.0268291 46.8454346,14.4952093 L47.3253185,13.8470195 L46.8843601,13.3917835 C46.196477,13.3411677 45.0765497,13.1896268 43.5302241,12.9353204 C41.9824127,12.6825479 40.8286114,12.5552413 40.0676314,12.5552413 Z" id="Path" fill="url(#linearGradient-6)"></path>
                    <path d="M71.4115189,28.9461743 L70.7121408,28.0709578 C70.1462042,28.5519741 69.579076,28.7943228 69.0131394,28.7943228 C68.3492065,28.7943228 68.0141125,28.3899992 68.0141125,27.5795114 L68.0141125,19.069082 C68.0141125,16.8152386 67.6700826,15.1942629 66.9805336,14.2061548 C66.2909847,13.1935051 65.1105602,12.6864134 63.435388,12.6864134 C62.1313511,12.6864134 60.8758656,13.1778598 59.6698251,14.1659679 C58.4637845,15.1280004 57.5681155,16.3845327 56.9768608,17.9291226 L56.9768608,4.17721109 C56.9768608,3.82197076 56.8785666,3.54434339 56.6819781,3.3409545 C56.4856874,3.13848592 56.2143358,3.03755839 55.8703059,3.03755839 C55.2543287,3.03755839 54.5159305,3.2397202 53.6548133,3.64588445 C52.8184187,4.05020807 52.0645317,4.55729983 51.4005988,5.16531912 L51.6612274,6.07704128 L53.2112978,6.07704128 C53.6548133,6.07704128 53.87672,6.32982023 53.87672,6.83660523 L53.87672,26.702761 C53.87672,27.6144832 53.7772343,28.2626895 53.5806458,28.6427782 C53.4081841,28.9980185 53.0248366,29.2250288 52.4338797,29.326263 L51.6954814,29.5140067 L52.1038494,30.6189942 L58.1197547,30.6189942 L58.5281226,30.085827 L58.1197547,29.5140067 C57.3560383,28.4507398 56.9768608,26.9463369 56.9768608,24.9961963 C56.9768608,22.1346404 57.4305036,19.8142277 58.3416614,18.0404802 C59.276946,16.2679599 60.4829865,15.3820064 61.959783,15.3820064 C63.0171908,15.3820064 63.7707799,15.6857093 64.2142955,16.2940354 C64.6819378,16.9008276 64.9124824,17.8278883 64.9124824,19.069082 L64.9124824,27.4276599 C64.9124824,28.7697812 65.1105602,29.7321205 65.5034394,30.3140643 C65.9222324,30.8963149 66.6010584,31.1855995 67.5363429,31.1855995 C68.7912327,31.1855995 70.0818658,30.4413741 71.4115189,28.9461743 L71.4115189,28.9461743 Z" id="Path" fill="url(#linearGradient-7)"></path>
                    <path d="M3.77150243,1.62003114 C1.04840863,1.63094159 0.803044675,3.00267797 0.610322439,4.42959381 C0.344734544,6.44767377 2.57234186,9.49804352 3.87440659,9.51757327 C5.18182472,9.53896309 7.32972595,6.42659398 7.03528918,4.42959381 C6.81877407,2.97663823 6.48924285,1.6095518 3.77150243,1.62003114 Z" id="Path" fill="url(#linearGradient-8)"></path>
                    <polygon id="Path" fill="url(#linearGradient-9)" points="3.7201404 1.62003114 5.63317046 0.0704077925 6.27793573 1.39968083 3.7201404 1.62003114 1.17711295 1.53332525 1.74803885 -2.48974171e-16"></polygon>
                </g>
            </g>
        </g>
    </g>
</svg>