<?xml version="1.0" encoding="UTF-8"?>
<svg width="1019px" height="804px" viewBox="0 0 1019 804" version="1.1" xmlns="http://www.w3.org/2000/svg" xmlns:xlink="http://www.w3.org/1999/xlink">
    <defs>
        <linearGradient x1="255.671176%" y1="33.8254151%" x2="235.442526%" y2="92.8536532%" id="linearGradient-1">
            <stop stop-color="#D51320" offset="0%"></stop>
            <stop stop-color="#FF1900" offset="85.2660042%"></stop>
            <stop stop-color="#FF3F3F" offset="100%"></stop>
        </linearGradient>
    </defs>
    <g id="Page-1" stroke="none" stroke-width="1" fill="none" fill-rule="evenodd">
        <g id="ibah_краснодар_svg" fill="url(#linearGradient-1)">
            <g id="Group" transform="translate(0.000000, 529.000000)" fill-rule="nonzero">
                <g id="Group-3" transform="translate(8.401734, 0.000000)">
                    <path d="M89.4194244,57.6923527 C89.4194244,40.8398925 84.7983863,27.3676198 75.5520591,17.3240118 C66.3057318,7.28040384 53.9730442,2.26080337 38.5624987,2.26080337 C34.8809726,2.26080337 30.8210909,2.68828471 26.3445932,3.54324739 C21.8340859,4.36295388 19.0198015,4.79043522 17.8507256,4.79043522 C14.9216592,4.79043522 12.4772278,4.08971838 10.5982041,2.72794793 L7.2907822,0 L3.9833603,2.72794793 L3.9833603,37.4112277 L10.5982041,39.4384588 L11.6865074,35.1151682 C15.7846497,20.6733501 24.6951334,13.4326095 38.3371859,13.4326095 C46.4229397,13.4326095 53.1100537,16.7422846 58.4835514,23.3572278 C63.8570492,29.9765781 67.0539403,38.9316511 68.0699735,50.1827836 L29.0908587,50.1827836 C26.3105837,52.1659445 24.9204462,56.09701 24.9204462,62.0553066 L68.0699735,62.0553066 C67.3175138,74.2010651 64.2354047,83.8171917 58.8236462,90.8992795 C53.3736271,97.946111 46.3464184,101.489358 37.6612475,101.489358 C31.9476549,101.489358 27.1735742,100.087925 23.3815173,97.2850574 C19.5469484,94.4821901 17.6254128,90.5511246 17.6254128,85.5271171 C17.6254128,82.8035762 17.927247,80.2342811 18.5309152,77.8985583 C19.0963228,75.5231723 19.3939058,74.0468192 19.3939058,73.4210218 C19.3939058,71.9050055 17.9995171,71.1646255 15.2234933,71.1646255 C10.9382989,71.1646255 7.36730353,72.6453856 4.43823709,75.6024988 C1.50491947,78.5596119 0,82.1821858 0,86.42615 C0,94.6364359 3.79205698,101.10154 11.3506638,105.812649 C18.9050195,110.559014 28.1173373,112.894737 39.0131243,112.894737 C53.5224186,112.894737 65.5915327,107.681227 75.1014334,97.2850574 C84.6453437,86.8536313 89.4194244,73.6545941 89.4194244,57.6923527 Z M150.874554,109.937624 L152.864109,103.551846 L148.92326,102.423648 C144.225701,100.907631 141.139341,99.1139724 139.676933,97.0514851 C138.206023,94.9889978 137.457814,91.172515 137.457814,85.5271171 L137.457814,44.030578 C137.457814,30.1704871 140.238089,19.2322533 145.8369,11.1718061 L148.243071,7.7475484 L145.8369,4.79043522 L105.093543,4.79043522 L103.103989,11.1718061 L107.049088,12.5379836 C111.89969,13.8997541 115.12634,15.7683323 116.746041,18.1437183 C118.361492,20.4794411 119.186221,24.6440789 119.186221,30.5583052 L119.186221,84.1653466 C119.186221,90.08398 118.361492,94.2089546 116.746041,96.469758 C115.12634,98.7658175 111.89969,100.594733 107.049088,101.956503 L103.103989,103.318273 L105.093543,109.937624 L150.874554,109.937624 Z M209.927764,105.147188 L206.616091,99.2329621 C204.248181,101.022214 201.76974,101.956503 199.134006,101.956503 C196.919138,101.956503 194.623499,100.048262 192.2981,96.2361857 L176.432678,69.5692827 C173.954237,63.9238848 169.741313,59.6005942 163.878929,56.5641546 L187.222185,23.2426452 C191.205546,17.4782577 196.204939,13.8997541 202.220366,12.5379836 L206.165466,11.4053784 L203.984608,4.79043522 L170.719085,4.79043522 L167.411664,7.98112068 L168.954844,11.4053784 C169.966626,13.6661818 170.493773,16.1164872 170.493773,18.6857823 C170.493773,22.3480193 169.103635,26.3540042 166.32336,30.7918775 L150.236876,53.8406137 L146.478829,53.8406137 C144.14918,53.8406137 142.941843,55.2817105 142.941843,58.1594973 C142.941843,59.5256748 143.243677,60.3806374 143.843094,60.6538729 C147.639402,62.482788 150.798033,65.3649817 153.314734,69.3357105 L167.411664,93.74181 C171.09319,100.281834 174.778967,105.111932 178.541266,108.223291 C182.261053,111.339057 186.920351,112.894737 192.523413,112.894737 C199.134006,112.894737 204.928371,110.325442 209.927764,105.147188 Z M240.293978,57.6923527 C240.293978,44.4580593 243.303817,33.7533977 249.314993,25.5387048 C255.33042,17.3240118 263.110088,13.2387005 272.65825,13.2387005 C280.140335,13.2387005 286.338563,15.8432517 291.150904,21.1008315 C295.997255,26.318748 299.232407,32.1183918 300.847857,38.4248433 C302.463307,44.7312948 303.292288,51.2316554 303.292288,57.925925 C303.292288,71.0059726 300.32071,81.5211321 294.347795,89.537509 C288.404639,97.5186297 280.739752,101.489358 271.344633,101.489358 C261.945263,101.489358 254.429168,97.5582929 248.753837,89.6168354 C243.116765,81.7150412 240.293978,71.085299 240.293978,57.6923527 Z M324.867052,57.4587805 C324.867052,40.4476674 320.054711,26.9798017 310.430028,17.0904395 C300.809596,7.20107741 287.915752,2.26080337 271.795259,2.26080337 C255.628003,2.26080337 242.814931,7.20107741 233.343291,17.0904395 C223.871651,26.9798017 219.135831,40.4476674 219.135831,57.4587805 C219.135831,74.3553109 223.871651,87.8275837 233.343291,97.8315284 C242.814931,107.875136 255.628003,112.894737 271.795259,112.894737 C287.915752,112.894737 300.809596,107.875136 310.430028,97.8315284 C320.054711,87.8275837 324.867052,74.3553109 324.867052,57.4587805 Z" id="Shape"></path>
                    <path d="M395.376616,98.0491737 L409.647836,71.5757655 C411.109704,68.5613583 412.982589,66.2819589 415.342764,64.7725678 C418.414805,64.4619394 420.88515,63.7313066 422.800409,62.4931684 C424.707193,61.2944056 425.643636,59.8637653 425.643636,58.2012475 C425.643636,55.8080969 424.783464,54.5699586 423.024986,54.5699586 L419.948707,55.4974686 C418.041923,55.9218481 415.940223,56.1537256 413.584286,56.1537256 C406.685965,56.1537256 401.368156,54.2987057 397.546113,50.6280415 C393.766443,46.9180018 391.851184,41.8954481 391.851184,35.5560053 C391.851184,28.9103092 394.10119,23.651503 398.673234,19.7095858 C403.207143,15.7676686 409.910548,13.838273 418.863959,13.838273 C429.092796,13.838273 434.224164,16.7739294 434.224164,22.6496172 L434.224164,70.8801331 C434.224164,85.2171614 431.380937,96.0366521 425.643636,103.264229 L423.474139,106.899893 L425.643636,109.83555 L466.931867,109.83555 L468.91916,103.264229 L464.495421,101.91234 C459.664901,100.560451 456.478453,98.7054307 454.944551,96.3472805 C453.406412,94.0285057 452.65641,89.8153356 452.65641,83.7865211 L452.65641,23.1133722 C452.65641,20.098965 454.046244,18.5895738 456.817437,18.5895738 L467.792039,18.5895738 L470.003908,11.3226211 C464.571692,9.08259714 457.190319,7.11382608 447.825891,5.4513083 C438.457225,3.78879052 429.389407,2.94003144 420.622438,2.94003144 C388.406261,2.94003144 372.296054,13.374518 372.296054,34.2041158 C372.296054,41.7379464 374.579958,48.0773892 379.113867,53.2180692 C383.647776,58.3587492 390.092706,61.9112872 398.448657,63.8450578 C394.478309,65.9713306 390.842708,69.9919986 387.469818,75.8633114 L376.046063,96.2335292 C373.719787,100.017945 371.359612,101.91234 369.037572,101.91234 C366.380786,101.91234 363.906204,100.98483 361.546029,99.2085611 L358.473988,105.079874 C363.457051,110.220554 369.147742,112.771206 375.596909,112.771206 C380.575735,112.771206 384.397777,111.76932 387.020665,109.717423 C389.643552,107.669902 392.452881,103.806735 395.376616,98.0491737 Z M530.35998,109.83555 L532.529477,103.264229 L528.372687,101.91234 C523.53793,100.560451 520.321821,98.7448061 518.707411,96.4654067 C517.097238,94.2210077 516.3091,90.1259639 516.3091,84.2502761 L516.3091,32.1565939 C516.3091,26.1277794 517.059102,22.1858623 518.593004,20.3658428 C520.131143,18.5895738 523.389625,17.6620639 528.372687,17.6620639 L530.584557,17.6620639 C537.287962,17.6620639 541.932041,18.7820759 544.52103,20.947724 C547.071883,23.1483726 549.165109,27.7859222 550.775282,34.8603728 L552.313421,39.1872941 L558.457503,37.1397722 L558.457503,2.70815396 L555.385462,0 L552.313421,2.70815396 C548.792226,5.29380662 541.63543,6.57132028 530.809134,6.57132028 L489.520902,6.57132028 L487.31327,9.50697668 L489.520902,13.1426406 C495.215831,20.6764711 498.101431,31.4959619 498.101431,45.5267369 L498.101431,72.927655 C498.101431,80.4658606 497.465836,86.3371734 496.232782,90.4715926 C494.991254,94.6103869 492.745486,98.8979327 489.520902,103.264229 L487.31327,106.668016 L489.520902,109.83555 L530.35998,109.83555 Z M590.940629,57.96937 C590.940629,44.8311045 593.940636,34.2041158 599.932175,26.0490286 C605.927952,17.8939414 613.682207,13.838273 623.199179,13.838273 C630.652586,13.838273 636.834803,16.4239257 641.631425,21.6433565 C646.461944,26.8234119 649.686528,32.5809735 651.296701,38.8416654 C652.906875,45.1023574 653.72891,51.5555514 653.72891,58.2012475 C653.72891,71.1863864 650.771276,81.625248 644.817873,89.5834581 C638.89413,97.5066679 631.254282,101.448585 621.889853,101.448585 C612.521188,101.448585 605.029645,97.5460433 599.372852,89.662209 C593.754195,81.8177501 590.940629,71.2651372 590.940629,57.96937 Z M675.237435,57.7374925 C675.237435,40.8498119 670.440813,27.4796689 660.847571,17.6620639 C651.258566,7.8444589 638.406841,2.94003144 622.339007,2.94003144 C606.224563,2.94003144 593.44911,7.8444589 584.00841,17.6620639 C574.56771,27.4796689 569.84736,40.8498119 569.84736,57.7374925 C569.84736,74.5114219 574.56771,87.88594 584.00841,97.8172962 C593.44911,107.788028 606.224563,112.771206 622.339007,112.771206 C638.406841,112.771206 651.258566,107.788028 660.847571,97.8172962 C670.440813,87.88594 675.237435,74.5114219 675.237435,57.7374925 Z M725.923993,24.6971391 C725.923993,21.6827319 726.898571,19.63521 728.885864,18.5895738 C730.86892,17.5089373 733.830791,17.0058069 737.758766,17.0058069 L747.652857,17.0058069 C752.635919,17.0058069 755.894401,17.9333168 757.432541,19.8277121 C758.966442,21.7221073 759.716444,25.5852736 759.716444,31.4959619 L759.716444,84.2502761 C759.716444,90.2790906 758.966442,94.2603831 757.432541,96.115403 C755.894401,98.0097982 752.635919,98.9766836 747.652857,98.9766836 L708.127342,98.9766836 C720.004488,91.3991025 725.923993,66.666963 725.923993,24.6971391 Z M796.394495,145.159678 L796.394495,101.680462 C790.962279,101.680462 786.576676,100.674202 783.203787,98.6266798 C779.873271,96.5791579 778.186826,93.5253753 778.186826,89.4697069 L778.186826,44.4067249 C778.186826,36.4047644 778.746149,30.0303212 779.911406,25.2352699 C781.110562,20.4839691 783.203787,15.9995461 786.280065,11.7863761 L788.936851,8.61884218 L786.280065,5.4513083 L700.673934,5.4513083 L698.500201,11.7863761 L702.881567,13.1426406 C706.665474,14.1839017 709.025649,15.5751666 709.88582,17.2376844 C710.788365,18.8608267 711.199383,22.8814947 711.199383,29.2165625 C711.199383,38.8810408 711.089213,46.839251 710.788365,53.0999429 C710.487516,59.3606349 709.77565,65.7000777 708.686665,72.1182713 C707.601917,78.5320899 706.029879,83.5940191 703.966315,87.3040587 C701.911225,91.0140984 699.09766,94.1816323 695.538329,96.8110354 C691.945101,99.4404385 687.525599,101.063581 682.241688,101.680462 L682.241688,144.9278 L688.610347,147.439077 L689.919672,143.112156 C693.144256,130.743898 696.589179,122.085681 700.258679,117.176878 C703.894281,112.272451 709.737515,109.83555 717.792618,109.83555 L761.254583,109.83555 C769.305449,109.83555 775.267328,112.346827 779.157167,117.408756 C783.017346,122.47506 786.352099,131.054527 789.165665,143.112156 L790.250413,147.631579 L796.394495,145.159678 Z M958.61521,109.83555 L960.598266,103.496107 L956.670291,102.376095 C952.136382,100.98483 949.098239,99.2829368 947.640609,97.1610392 C946.174504,95.0347664 945.462638,91.2066005 945.462638,85.6021655 L945.462638,44.4067249 C945.462638,36.4047644 946.064334,30.0303212 947.339761,25.2352699 C948.577052,20.4839691 950.784684,15.9995461 954.00503,11.7863761 L956.2169,8.3869647 L954.00503,5.4513083 L912.759172,5.4513083 L910.776116,11.7863761 L915.157483,13.1426406 C919.99224,14.49453 923.170213,16.3495499 924.712589,18.7077001 C926.246491,21.0264749 927.030391,25.1608941 927.030391,31.0322069 L927.030391,84.2502761 C927.030391,90.1259639 926.246491,94.2210077 924.712589,96.4654067 C923.170213,98.7448061 919.99224,100.560451 915.157483,101.91234 L910.776116,103.264229 L912.759172,109.83555 L958.61521,109.83555 Z M860.085321,109.83555 C875.445526,109.83555 886.759112,107.092395 894.102349,101.566711 C901.407451,96.0760276 905.076951,88.4634461 905.076951,78.8033428 C905.076951,70.0663744 901.445586,62.7250459 894.212519,56.849358 C886.945553,50.9780452 877.051462,47.9986384 864.466687,47.9986384 C859.335319,47.9986384 854.80141,48.619895 850.831062,49.8186578 C846.894612,51.0130456 844.911557,52.9074409 844.911557,55.4974686 C844.911557,58.2012475 845.73783,59.557512 847.343766,59.557512 C847.644614,59.557512 849.106482,59.2075082 851.729369,58.5512512 C854.352257,57.8556188 857.424298,57.505615 860.945492,57.505615 C867.687034,57.505615 873.195521,59.5181366 877.504853,63.5344295 C881.848083,67.5157221 883.987919,72.3851492 883.987919,78.1470858 C883.987919,84.4821536 882.034524,89.662209 878.178583,93.6435015 C874.284506,97.6597945 869.373478,99.6329406 863.339566,99.6329406 C860.123457,99.6329406 857.496332,99.4010631 855.437005,98.9766836 C853.411577,98.5129286 851.017503,97.4672924 848.318345,95.8047746 C845.623423,94.1466319 843.559859,91.2459759 842.174263,87.0721813 C840.792903,82.937762 840.0768,77.5258292 840.0768,70.8801331 L840.0768,44.4067249 C840.0768,30.6472028 842.924264,19.7883366 848.657328,11.7863761 L851.055639,8.3869647 L848.657328,5.4513083 L807.822488,5.4513083 L805.610618,11.7863761 L809.805543,13.1426406 C814.339452,14.49453 817.449629,16.3889253 819.136073,18.8214513 C820.818281,21.2189769 821.648791,25.2746453 821.648791,31.0322069 L821.648791,84.2502761 C821.648791,89.9728373 820.856416,94.0285057 819.246243,96.3472805 C817.63607,98.7054307 814.487758,100.560451 809.805543,101.91234 L805.610618,103.264229 L807.822488,109.83555 L860.085321,109.83555 Z" id="Shape"></path>
                </g>
                <path d="M17.1767669,252.358704 L18.0411134,249.68664 L16.3844494,249.138866 C14.4566179,248.58664 13.1685722,247.851822 12.5245494,246.921053 C11.8847635,246.012551 11.5712261,244.346964 11.5712261,241.959919 L11.5712261,220.779352 C11.5712261,218.32996 11.8678155,216.726721 12.4821794,215.987449 C13.0965433,215.265992 14.393063,214.887449 16.3844494,214.887449 L17.2657438,214.887449 C19.9392859,214.887449 21.7950886,215.3417 22.8246777,216.223482 C23.8415559,217.118623 24.6804804,219.002429 25.3202662,221.879352 L25.9346301,223.638462 L28.3878487,222.805668 L28.3878487,208.808502 L27.1591209,207.708502 L25.9346301,208.808502 C24.5279486,209.859514 21.6764528,210.380567 17.3547206,210.380567 L0.881294406,210.380567 L0,211.574089 L0.881294406,213.048178 C3.15655929,216.112146 4.30478422,220.512146 4.30478422,226.217004 L4.30478422,237.355061 C4.30478422,240.419028 4.05056468,242.806073 3.55907356,244.489474 C3.06334546,246.168421 2.16934008,247.91417 0.881294406,249.68664 L0,251.07166 L0.881294406,252.358704 L17.1767669,252.358704 Z M42.8232816,248.038866 C42.8232816,246.858704 42.2131547,245.620648 40.9844269,244.297976 C39.7599361,242.979757 38.6540811,242.320648 37.6668619,242.320648 C36.6669317,242.320648 35.6034466,242.979757 34.4679327,244.297976 C33.3324187,245.620648 32.7646618,246.858704 32.7646618,248.038866 C32.7646618,249.076518 33.3493667,250.252227 34.5145396,251.574899 C35.6797125,252.893117 36.7262496,253.552227 37.6668619,253.552227 C38.6540811,253.552227 39.7599361,252.893117 40.9844269,251.574899 C42.2131547,250.252227 42.8232816,249.076518 42.8232816,248.038866 Z M71.3763729,252.358704 L72.1644535,249.593117 L70.5077895,249.138866 C68.5206401,248.524291 67.2029355,247.740486 66.5631496,246.782996 C65.9191268,245.838866 65.5886414,244.110931 65.5886414,241.581377 L65.5886414,208.162753 C65.5886414,202.034818 66.8300802,197.305263 69.2832987,193.991903 L70.3298358,192.419838 L69.2832987,191.052632 L51.403191,191.052632 L50.4498678,193.991903 L52.3776993,194.446154 C54.4072186,195.060729 55.7842411,195.893522 56.4875819,196.944534 C57.1909226,197.982186 57.534119,199.790283 57.534119,202.364372 L57.534119,241.02915 C57.534119,243.67004 57.2036336,245.478138 56.5299518,246.466802 C55.860507,247.442105 54.4707735,248.274899 52.3776993,248.947368 L50.4498678,249.406073 L51.403191,252.358704 L71.3763729,252.358704 Z M100.014204,250.145344 L98.6964995,247.660324 C97.7135173,248.461943 96.6669802,248.853846 95.5441772,248.853846 C94.556958,248.853846 93.5104209,248.007692 92.3918549,246.279757 L82.0620676,226.764777 C80.714704,224.315385 78.8461904,222.507287 76.4565267,221.331579 L91.0910983,199.051012 C92.7181033,196.601619 94.8281255,195.060729 97.3830319,194.446154 L99.3108634,193.991903 L98.3533032,191.052632 L83.5577259,191.052632 L82.0620676,192.419838 L82.7654083,193.991903 C83.4687491,195.831174 83.8119454,197.087045 83.8119454,197.763968 C83.8119454,199.11336 83.2568995,200.747773 82.1510445,202.649393 L71.0289396,219.866397 L69.1900849,219.866397 C68.0842299,219.866397 67.5164729,220.54332 67.5164729,221.879352 C67.5164729,222.444939 67.6393457,222.74332 67.8766173,222.805668 C69.8044488,223.794332 71.2111302,225.08583 72.0754767,226.671255 L81.8078481,245.179757 C83.2568995,248.007692 84.8118756,250.096356 86.4431177,251.476923 C88.0701227,252.861943 90.11659,253.552227 92.5698086,253.552227 C95.4382524,253.552227 97.9211299,252.421053 100.014204,250.145344 Z M121.478807,275 L122.271125,272.421457 L120.597513,272.060729 C119.207779,271.744534 118.279878,271.147773 117.847705,270.270445 C117.415532,269.375304 117.190971,267.816599 117.190971,265.616599 L117.190971,217.746559 C119.881461,215.533198 122.915148,214.433198 126.292031,214.433198 C129.96974,214.433198 132.91445,215.987449 135.096501,219.082591 C137.2955,222.177733 138.384407,226.217004 138.384407,231.178138 C138.384407,236.397571 137.2955,240.668421 135.096501,243.986235 C132.91445,247.299595 129.999399,248.947368 126.381007,248.947368 C124.978563,248.947368 123.690517,248.72915 122.525344,248.257085 C121.360172,247.802834 120.745808,247.566802 120.68649,247.566802 C119.881461,247.566802 119.461999,248.274899 119.461999,249.68664 C119.461999,250.425911 119.728929,250.94251 120.254317,251.258704 C122.466027,252.781781 125.156517,253.552227 128.308839,253.552227 C134.155888,253.552227 138.714892,251.338866 142.015509,246.876518 C145.320363,242.42753 146.964316,236.646964 146.964316,229.530364 C146.964316,223.259919 145.396629,218.267611 142.24007,214.526721 C139.087747,210.78583 134.64738,208.902024 128.923203,208.902024 C124.542153,208.902024 120.627172,210.661134 117.190971,214.148178 L117.190971,213.787449 C117.190971,211.146559 116.517289,209.82834 115.169926,209.82834 C113.424285,209.82834 111.331211,210.206883 108.907651,210.977328 C106.488328,211.747773 104.874034,212.531579 104.052058,213.333198 L104.052058,215.987449 L108.250917,217.007287 C109.356772,217.305668 109.924529,218.267611 109.924529,219.866397 L109.924529,261.376923 C109.924529,266.106478 109.013576,269.780567 107.20438,272.421457 L106.234109,273.802024 L107.20438,275 L121.478807,275 Z M162.031061,231.178138 C162.031061,225.602429 163.107257,221.264777 165.259649,218.20081 C167.428989,215.141296 170.492335,213.600405 174.466634,213.600405 C177.381684,213.600405 180.012856,214.433198 182.347439,216.080972 L182.347439,239.194332 C179.534076,244.346964 175.856367,246.921053 171.314311,246.921053 C168.683139,246.921053 166.471429,245.665182 164.691892,243.153441 C162.912355,240.637247 162.031061,236.646964 162.031061,231.178138 Z M182.347439,244.534008 C182.347439,247.722672 182.851641,250.034008 183.86852,251.432389 C184.902346,252.84413 186.51664,253.552227 188.741061,253.552227 C191.596794,253.552227 194.600821,251.74413 197.75738,248.114575 L196.185456,245.919028 C194.84233,246.952227 193.494966,247.473279 192.15184,247.473279 C190.46128,247.473279 189.609644,246.591498 189.609644,244.819028 L189.609644,217.007287 C189.609644,216.018623 189.969788,214.887449 190.656181,213.600405 L191.808643,212.046154 L190.745158,210.92834 C189.118153,210.803644 186.457322,210.442915 182.779612,209.82834 C179.101903,209.218219 176.352095,208.902024 174.542899,208.902024 C168.068775,208.902024 162.929303,211.039676 159.132958,215.310526 C155.336613,219.568016 153.438441,225.384211 153.438441,232.750202 C153.438441,239.381377 154.870544,244.502834 157.726277,248.114575 C160.598958,251.74413 164.064817,253.552227 168.161989,253.552227 C173.644657,253.552227 178.368903,250.550607 182.347439,244.534008 Z M236.724999,246.466802 C236.843635,246.404453 236.902953,246.155061 236.902953,245.72753 C236.902953,245.179757 236.682629,244.645344 236.246219,244.124291 C235.814046,243.589879 235.352213,243.340486 234.886144,243.340486 C234.48363,243.340486 234.212462,243.402834 234.093827,243.51417 C230.83558,246.404453 227.15787,247.851822 223.064936,247.851822 C219.0864,247.851822 215.946789,246.293117 213.603732,243.197976 C211.269149,240.102834 210.103976,235.907692 210.103976,230.630364 C210.103976,225.415385 211.091195,221.233603 213.078345,218.062753 C215.065494,214.905263 217.696666,213.333198 220.954913,213.333198 C223.420843,213.333198 225.348675,213.978947 226.785015,215.265992 C228.221355,216.553036 228.937407,218.32996 228.937407,220.592308 C228.937407,222.004049 228.759453,223.228745 228.399309,224.284211 C228.056113,225.321862 227.725627,226.105668 227.399379,226.622267 C227.085841,227.14332 226.920599,227.504049 226.920599,227.691093 C226.920599,228.24332 227.41209,228.510526 228.399309,228.510526 C230.746603,228.510526 232.661723,227.753441 234.140434,226.217004 C235.636092,224.676113 236.381803,222.680972 236.381803,220.231579 C236.381803,216.913765 235.051387,214.197166 232.390556,212.077328 C229.729725,209.97085 226.276576,208.902024 222.018399,208.902024 C215.828153,208.902024 210.896294,210.91498 207.218584,214.936437 C203.528164,218.957895 201.689309,224.408907 201.689309,231.276113 C201.689309,237.715789 203.587482,243.042105 207.383827,247.250607 C211.180172,251.445749 215.963736,253.552227 221.747231,253.552227 C227.772234,253.552227 232.763411,251.196356 236.724999,246.466802 Z M262.045265,252.358704 L262.824872,249.780162 L261.252948,249.325911 C259.447989,248.760324 258.236209,248.07004 257.621845,247.206073 C257.011718,246.342105 256.693944,244.787854 256.693944,242.507692 L256.693944,233.489474 L276.230716,233.489474 L276.230716,241.959919 C276.230716,244.346964 275.917178,246.012551 275.307051,246.921053 C274.692687,247.851822 273.42159,248.58664 271.510706,249.138866 L269.654903,249.68664 L270.625175,252.358704 L288.759502,252.358704 L289.551819,249.780162 L288.056161,249.325911 C286.246965,248.760324 285.052134,248.07004 284.467429,247.206073 C283.886961,246.342105 283.586134,244.787854 283.586134,242.507692 L283.586134,225.7583 C283.586134,219.933198 284.66233,215.502024 286.83167,212.500405 L287.878207,211.115385 L286.83167,209.921862 L270.625175,209.921862 L269.654903,212.500405 L271.510706,213.048178 C273.42159,213.600405 274.692687,214.353036 275.307051,215.310526 C275.917178,216.254656 276.230716,217.938057 276.230716,220.325101 L276.230716,228.510526 L256.693944,228.510526 L256.693944,225.7583 C256.693944,219.977733 257.816747,215.564372 260.028457,212.500405 L260.986017,211.115385 L260.028457,209.921862 L243.826198,209.921862 L242.944904,212.500405 L244.618516,213.048178 C246.546347,213.600405 247.817445,214.353036 248.431809,215.310526 C249.041936,216.254656 249.342762,217.938057 249.342762,220.325101 L249.342762,241.959919 C249.342762,244.346964 249.041936,246.012551 248.431809,246.921053 C247.817445,247.851822 246.546347,248.58664 244.618516,249.138866 L242.944904,249.68664 L243.826198,252.358704 L262.045265,252.358704 Z M304.529587,231.276113 C304.529587,225.931984 305.724419,221.612146 308.11832,218.298785 C310.507984,214.980972 313.600988,213.333198 317.40157,213.333198 C320.375939,213.333198 322.841868,214.384211 324.752752,216.504049 C326.680583,218.610526 327.968629,220.953036 328.608415,223.495951 C329.252438,226.04332 329.582923,228.666397 329.582923,231.369636 C329.582923,236.646964 328.400802,240.891093 326.023849,244.124291 C323.663845,247.348583 320.61321,248.947368 316.876183,248.947368 C313.139156,248.947368 310.152076,247.361943 307.893759,244.155466 C305.65239,240.966802 304.529587,236.678138 304.529587,231.276113 Z M338.162833,231.178138 C338.162833,224.315385 336.247712,218.877733 332.421708,214.887449 C328.595704,210.897166 323.468943,208.902024 317.054137,208.902024 C310.626619,208.902024 305.529518,210.897166 301.762831,214.887449 C297.996145,218.877733 296.114921,224.315385 296.114921,231.178138 C296.114921,238.00081 297.996145,243.434008 301.762831,247.473279 C305.529518,251.525911 310.626619,253.552227 317.054137,253.552227 C323.468943,253.552227 328.595704,251.525911 332.421708,247.473279 C336.247712,243.434008 338.162833,238.00081 338.162833,231.178138 Z M358.38176,217.746559 C358.38176,216.521862 358.771563,215.689069 359.563881,215.265992 C360.356198,214.825101 361.538319,214.620243 363.106006,214.620243 L367.054883,214.620243 C369.042033,214.620243 370.342789,214.998785 370.952916,215.769231 C371.56728,216.539676 371.868107,218.107287 371.868107,220.512146 L371.868107,241.959919 C371.868107,244.409312 371.56728,246.025911 370.952916,246.782996 C370.342789,247.548988 369.042033,247.945344 367.054883,247.945344 L351.284798,247.945344 C356.021755,244.863563 358.38176,234.807692 358.38176,217.746559 Z M386.498441,266.716599 L386.498441,249.045344 C384.333338,249.045344 382.58346,248.635628 381.240334,247.802834 C379.909918,246.97004 379.236236,245.72753 379.236236,244.079757 L379.236236,225.7583 C379.236236,222.507287 379.460797,219.915385 379.922629,217.969231 C380.401409,216.036437 381.240334,214.210526 382.464824,212.500405 L383.524072,211.21336 L382.464824,209.921862 L348.310429,209.921862 L347.441846,212.500405 L349.191724,213.048178 C350.700093,213.475709 351.640705,214.041296 351.988139,214.713765 C352.344046,215.372874 352.509289,217.007287 352.509289,219.58583 C352.509289,223.513765 352.462682,226.751417 352.344046,229.294332 C352.22541,231.8417 351.941532,234.415789 351.509358,237.025506 C351.072948,239.630769 350.445873,241.692713 349.623897,243.197976 C348.80192,244.707692 347.683354,245.994737 346.259725,247.063563 C344.827621,248.132389 343.060796,248.791498 340.95501,249.045344 L340.95501,266.623077 L343.497206,267.647368 L344.018356,265.883806 C345.306402,260.860324 346.679187,257.337652 348.145186,255.34251 C349.594238,253.347368 351.924584,252.358704 355.140461,252.358704 L372.478233,252.358704 C375.694111,252.358704 378.071063,253.378543 379.62604,255.436032 C381.164068,257.497976 382.494483,260.98502 383.613049,265.883806 L384.04946,267.723077 L386.498441,266.716599 Z M399.472112,231.178138 C399.472112,225.602429 400.548308,221.264777 402.7007,218.20081 C404.87004,215.141296 407.933385,213.600405 411.907684,213.600405 C414.822735,213.600405 417.453907,214.433198 419.78849,216.080972 L419.78849,239.194332 C416.975127,244.346964 413.297418,246.921053 408.755362,246.921053 C406.12419,246.921053 403.91248,245.665182 402.132943,243.153441 C400.353406,240.637247 399.472112,236.646964 399.472112,231.178138 Z M419.78849,244.534008 C419.78849,247.722672 420.292692,250.034008 421.30957,251.432389 C422.343396,252.84413 423.95769,253.552227 426.182111,253.552227 C429.037844,253.552227 432.041872,251.74413 435.198431,248.114575 L433.626507,245.919028 C432.28338,246.952227 430.936017,247.473279 429.59289,247.473279 C427.90233,247.473279 427.050695,246.591498 427.050695,244.819028 L427.050695,217.007287 C427.050695,216.018623 427.410839,214.887449 428.097232,213.600405 L429.249694,212.046154 L428.186209,210.92834 C426.559204,210.803644 423.898372,210.442915 420.220663,209.82834 C416.542954,209.218219 413.793146,208.902024 411.98395,208.902024 C405.509826,208.902024 400.370354,211.039676 396.574009,215.310526 C392.777664,219.568016 390.879491,225.384211 390.879491,232.750202 C390.879491,239.381377 392.311595,244.502834 395.167327,248.114575 C398.040008,251.74413 401.505868,253.552227 405.60304,253.552227 C411.085708,253.552227 415.809954,250.550607 419.78849,244.534008 Z M456.213913,275 L457.006231,272.421457 L455.332619,272.060729 C453.942885,271.744534 453.014984,271.147773 452.582811,270.270445 C452.150637,269.375304 451.926077,267.816599 451.926077,265.616599 L451.926077,217.746559 C454.616567,215.533198 457.650253,214.433198 461.027136,214.433198 C464.704846,214.433198 467.649555,215.987449 469.831606,219.082591 C472.030605,222.177733 473.119512,226.217004 473.119512,231.178138 C473.119512,236.397571 472.030605,240.668421 469.831606,243.986235 C467.649555,247.299595 464.734505,248.947368 461.116113,248.947368 C459.713669,248.947368 458.425623,248.72915 457.26045,248.257085 C456.095277,247.802834 455.480913,247.566802 455.421595,247.566802 C454.616567,247.566802 454.197105,248.274899 454.197105,249.68664 C454.197105,250.425911 454.464035,250.94251 454.989422,251.258704 C457.201132,252.781781 459.891622,253.552227 463.043945,253.552227 C468.890994,253.552227 473.449998,251.338866 476.750615,246.876518 C480.055469,242.42753 481.699422,236.646964 481.699422,229.530364 C481.699422,223.259919 480.131735,218.267611 476.975176,214.526721 C473.822853,210.78583 469.382485,208.902024 463.658309,208.902024 C459.277259,208.902024 455.362278,210.661134 451.926077,214.148178 L451.926077,213.787449 C451.926077,211.146559 451.252395,209.82834 449.905031,209.82834 C448.159391,209.82834 446.066316,210.206883 443.642757,210.977328 C441.223434,211.747773 439.60914,212.531579 438.787164,213.333198 L438.787164,215.987449 L442.986023,217.007287 C444.091878,217.305668 444.659635,218.267611 444.659635,219.866397 L444.659635,261.376923 C444.659635,266.106478 443.748682,269.780567 441.939486,272.421457 L440.969215,273.802024 L441.939486,275 L456.213913,275 Z" id="Shape"></path>
            </g>
            <g id="Group-2">
                <path d="M64.105112,179.155844 C54.9148594,179.155844 44.3133536,182.044877 32.3005944,187.836076 C20.2835588,193.259579 9.55375718,200.346465 0,209.022319 L3.67781163,221.436407 L25.9456781,221.436407 C32.3005944,221.436407 35.4823292,225.419771 35.4823292,233.373366 L35.4823292,388.982821 C35.4823292,407.783423 38.5229385,421.291842 44.5271798,429.600001 C50.5399742,437.921292 60.2177506,442.11039 73.6588692,442.11039 C91.320918,442.11039 109.701423,431.412212 128.774725,410.099027 L119.798299,397.089623 C111.330779,404.303451 102.991555,407.932252 94.8490513,407.932252 C84.9702782,407.932252 80.009509,402.141054 80.009509,390.576166 L80.009509,194.349532 C80.009509,189.652665 78.5982557,186.023864 75.7800256,183.506903 C72.9532425,180.604738 69.0658811,179.155844 64.105112,179.155844 Z" id="Path"></path>
                <path d="M400.321429,300.270499 C400.321429,264.389167 390.602376,235.183738 371.228213,212.715661 C351.858312,189.896451 327.057678,178.528543 296.762369,178.528543 C278.436841,178.528543 261.88035,183.014258 247.092897,192.069082 C243.917154,194.610402 242.297312,197.858375 242.297312,201.848116 C242.297312,204.385047 242.996402,206.781525 244.42442,208.949767 C246.172145,211.122398 247.941183,212.215297 249.710221,212.215297 C250.05124,212.215297 253.22272,211.271629 259.211873,209.45013 C265.542045,207.286278 272.814284,206.206546 280.909231,206.206546 C301.344817,206.206546 317.683908,215.836349 330.020284,235.038896 C342.335346,253.885922 348.541899,278.899709 348.541899,310.049533 C348.541899,341.941124 341.994327,367.306043 328.954598,386.153069 C316.277203,404.635795 299.013097,413.831072 277.175069,413.831072 C257.442835,413.831072 240.545325,408.3973 226.444174,397.529755 L226.444174,56.7602514 C226.444174,51.6995572 225.037469,47.7054274 222.219796,44.7910293 C219.410649,41.898577 215.527291,40.4545455 210.603824,40.4545455 C201.08512,40.4545455 190.1725,43.3469977 177.836124,49.1538481 C165.521062,54.9431418 154.732062,62.1940237 145.571429,70.8977155 L150.371276,83.9422803 L171.505952,83.9422803 C177.836124,83.9422803 181.011867,87.558943 181.011867,94.814214 L181.011867,410.065178 C202.491825,431.440357 233.27735,442.11039 273.440907,442.11039 C309.729631,442.11039 339.880007,428.692747 363.832355,401.888185 C388.125723,375.057289 400.248962,341.216914 400.248962,300.270499 L400.321429,300.270499 Z" id="Path"></path>
                <path d="M571.741324,179.155844 C532.85171,179.155844 502.013926,191.815062 479.24917,217.111612 C456.467455,242.049221 445.112637,276.227358 445.112637,319.597874 C445.112637,358.617331 453.673271,388.763955 470.841178,410.099027 C488.004845,431.412212 508.887025,442.11039 533.411395,442.11039 C556.392392,442.11039 580.429159,433.001181 595.638169,416.021545 C599.640763,411.539166 601.379178,404.675524 601.039975,398.608554 C600.484531,394.056138 593.323109,388.833992 590.024361,391.075181 C578.809465,399.033154 566.271677,403.086555 552.334677,403.086555 C536.565982,403.086555 523.256508,395.627597 512.385055,380.827868 C501.874004,366.001875 496.616359,342.504405 496.616359,310.344214 C496.616359,277.470518 503.073935,252.02514 516.027246,233.946796 C528.997517,215.885961 547.420475,206.838035 571.25796,206.838035 C588.76931,206.838035 604.538005,211.688108 618.547086,221.436407 C625.080982,271.250342 622.910083,335.435029 618.547086,388.982821 C618.547086,407.783423 621.489671,421.291842 627.446922,429.600001 C633.760336,437.921292 643.57602,442.11039 656.881255,442.11039 C674.049162,442.11039 692.132917,431.412212 711.06044,410.099027 L701.583958,397.089623 C693.536369,403.231007 685.4803,406.343284 677.428471,406.343284 C667.252384,406.343284 662.1389,401.0511 662.1389,390.576166 L662.1389,226.85991 C662.1389,221.086221 664.241958,214.423935 668.456554,206.838035 L675.304213,197.588751 L669.011999,191.092804 C659.196314,190.370546 643.215617,188.208148 621.150468,184.579347 C599.064118,180.972433 582.600057,179.155844 571.741324,179.155844 Z" id="Path"></path>
                <path d="M1019,413.044731 L1009.02029,400.555911 C1000.94471,407.419728 992.852127,410.877901 984.776548,410.877901 C975.30262,410.877901 970.521027,405.108443 970.521027,393.543262 L970.521027,272.104485 C970.521027,239.943477 965.611925,216.813115 955.77247,202.713399 C945.933016,188.263489 929.089059,181.027591 905.185346,181.027591 C886.577513,181.027591 868.66248,188.04024 851.452997,202.139956 C834.243514,215.867589 821.462849,233.797559 813.025994,255.83794 L813.025994,59.6063236 C813.025994,54.5372549 811.623394,50.575677 808.818193,47.6734382 C806.017242,44.7843317 802.145215,43.3441558 797.236113,43.3441558 C788.446483,43.3441558 777.909979,46.2288849 765.622348,52.0246077 C753.687493,57.7940658 742.929973,65.0299644 733.456044,73.7060388 L737.17506,86.715773 L759.293645,86.715773 C765.622348,86.715773 768.788825,90.3227787 768.788825,97.5542999 L768.788825,381.032555 C768.788825,394.04229 767.369223,403.291808 764.564022,408.715449 C762.103096,413.784517 756.632954,417.023819 748.20035,418.468372 L737.663845,421.147362 L743.491013,436.914879 L829.334413,436.914879 L835.16158,429.306899 L829.334413,421.147362 C818.436632,405.975175 813.025994,384.508238 813.025994,356.680889 C813.025994,315.848184 819.499208,282.737272 832.500889,257.426948 C845.846846,232.134134 863.056328,219.492104 884.129338,219.492104 C899.217919,219.492104 909.971189,223.825764 916.299893,232.506216 C922.972871,241.164781 926.262606,254.393387 926.262606,272.104485 L926.262606,391.376432 C926.262606,410.527706 929.089059,424.259717 934.695211,432.56371 C940.671139,440.87208 950.357583,445 963.703539,445 C981.610071,445 1000.02664,434.380345 1019,413.044731 Z" id="Path"></path>
                <path d="M53.8171018,23.1177471 C14.9601691,23.2725687 11.458971,42.8464329 8.70893905,63.2076752 C4.91915738,92.0044788 36.705792,135.531445 55.2854831,135.810123 C73.9415639,136.115343 104.59084,91.7036827 100.389402,63.2076752 C97.2998599,42.4748612 92.5976448,22.9673491 53.8171018,23.1177471 Z" id="Path"></path>
                <polygon id="Path" points="53.0841961 23.1168831 80.3819998 1.00467742 89.5824176 19.9726149 53.0841961 23.1168831 16.7967033 21.8796415 24.9434772 0"></polygon>
                <path d="M64.105112,179.155844 C54.9148594,179.155844 44.3133536,182.044877 32.3005944,187.836076 C20.2835588,193.259579 9.55375718,200.346465 0,209.022319 L3.67781163,221.436407 L25.9456781,221.436407 C32.3005944,221.436407 35.4823292,225.419771 35.4823292,233.373366 L35.4823292,388.982821 C35.4823292,407.783423 38.5229385,421.291842 44.5271798,429.600001 C50.5399742,437.921292 60.2177506,442.11039 73.6588692,442.11039 C91.320918,442.11039 109.701423,431.412212 128.774725,410.099027 L119.798299,397.089623 C111.330779,404.303451 102.991555,407.932252 94.8490513,407.932252 C84.9702782,407.932252 80.009509,402.141054 80.009509,390.576166 L80.009509,194.349532 C80.009509,189.652665 78.5982557,186.023864 75.7800256,183.506903 C72.9532425,180.604738 69.0658811,179.155844 64.105112,179.155844 Z" id="Path"></path>
                <path d="M400.321429,300.270499 C400.321429,264.389167 390.602376,235.183738 371.228213,212.715661 C351.858312,189.896451 327.057678,178.528543 296.762369,178.528543 C278.436841,178.528543 261.88035,183.014258 247.092897,192.069082 C243.917154,194.610402 242.297312,197.858375 242.297312,201.848116 C242.297312,204.385047 242.996402,206.781525 244.42442,208.949767 C246.172145,211.122398 247.941183,212.215297 249.710221,212.215297 C250.05124,212.215297 253.22272,211.271629 259.211873,209.45013 C265.542045,207.286278 272.814284,206.206546 280.909231,206.206546 C301.344817,206.206546 317.683908,215.836349 330.020284,235.038896 C342.335346,253.885922 348.541899,278.899709 348.541899,310.049533 C348.541899,341.941124 341.994327,367.306043 328.954598,386.153069 C316.277203,404.635795 299.013097,413.831072 277.175069,413.831072 C257.442835,413.831072 240.545325,408.3973 226.444174,397.529755 L226.444174,56.7602514 C226.444174,51.6995572 225.037469,47.7054274 222.219796,44.7910293 C219.410649,41.898577 215.527291,40.4545455 210.603824,40.4545455 C201.08512,40.4545455 190.1725,43.3469977 177.836124,49.1538481 C165.521062,54.9431418 154.732062,62.1940237 145.571429,70.8977155 L150.371276,83.9422803 L171.505952,83.9422803 C177.836124,83.9422803 181.011867,87.558943 181.011867,94.814214 L181.011867,410.065178 C202.491825,431.440357 233.27735,442.11039 273.440907,442.11039 C309.729631,442.11039 339.880007,428.692747 363.832355,401.888185 C388.125723,375.057289 400.248962,341.216914 400.248962,300.270499 L400.321429,300.270499 Z" id="Path"></path>
                <path d="M571.741324,179.155844 C532.85171,179.155844 502.013926,191.815062 479.24917,217.111612 C456.467455,242.049221 445.112637,276.227358 445.112637,319.597874 C445.112637,358.617331 453.673271,388.763955 470.841178,410.099027 C488.004845,431.412212 508.887025,442.11039 533.411395,442.11039 C556.392392,442.11039 580.429159,433.001181 595.638169,416.021545 C599.640763,411.539166 601.379178,404.675524 601.039975,398.608554 C600.484531,394.056138 593.323109,388.833992 590.024361,391.075181 C578.809465,399.033154 566.271677,403.086555 552.334677,403.086555 C536.565982,403.086555 523.256508,395.627597 512.385055,380.827868 C501.874004,366.001875 496.616359,342.504405 496.616359,310.344214 C496.616359,277.470518 503.073935,252.02514 516.027246,233.946796 C528.997517,215.885961 547.420475,206.838035 571.25796,206.838035 C588.76931,206.838035 604.538005,211.688108 618.547086,221.436407 C625.080982,271.250342 622.910083,335.435029 618.547086,388.982821 C618.547086,407.783423 621.489671,421.291842 627.446922,429.600001 C633.760336,437.921292 643.57602,442.11039 656.881255,442.11039 C674.049162,442.11039 692.132917,431.412212 711.06044,410.099027 L701.583958,397.089623 C693.536369,403.231007 685.4803,406.343284 677.428471,406.343284 C667.252384,406.343284 662.1389,401.0511 662.1389,390.576166 L662.1389,226.85991 C662.1389,221.086221 664.241958,214.423935 668.456554,206.838035 L675.304213,197.588751 L669.011999,191.092804 C659.196314,190.370546 643.215617,188.208148 621.150468,184.579347 C599.064118,180.972433 582.600057,179.155844 571.741324,179.155844 Z" id="Path"></path>
                <path d="M1019,413.044731 L1009.02029,400.555911 C1000.94471,407.419728 992.852127,410.877901 984.776548,410.877901 C975.30262,410.877901 970.521027,405.108443 970.521027,393.543262 L970.521027,272.104485 C970.521027,239.943477 965.611925,216.813115 955.77247,202.713399 C945.933016,188.263489 929.089059,181.027591 905.185346,181.027591 C886.577513,181.027591 868.66248,188.04024 851.452997,202.139956 C834.243514,215.867589 821.462849,233.797559 813.025994,255.83794 L813.025994,59.6063236 C813.025994,54.5372549 811.623394,50.575677 808.818193,47.6734382 C806.017242,44.7843317 802.145215,43.3441558 797.236113,43.3441558 C788.446483,43.3441558 777.909979,46.2288849 765.622348,52.0246077 C753.687493,57.7940658 742.929973,65.0299644 733.456044,73.7060388 L737.17506,86.715773 L759.293645,86.715773 C765.622348,86.715773 768.788825,90.3227787 768.788825,97.5542999 L768.788825,381.032555 C768.788825,394.04229 767.369223,403.291808 764.564022,408.715449 C762.103096,413.784517 756.632954,417.023819 748.20035,418.468372 L737.663845,421.147362 L743.491013,436.914879 L829.334413,436.914879 L835.16158,429.306899 L829.334413,421.147362 C818.436632,405.975175 813.025994,384.508238 813.025994,356.680889 C813.025994,315.848184 819.499208,282.737272 832.500889,257.426948 C845.846846,232.134134 863.056328,219.492104 884.129338,219.492104 C899.217919,219.492104 909.971189,223.825764 916.299893,232.506216 C922.972871,241.164781 926.262606,254.393387 926.262606,272.104485 L926.262606,391.376432 C926.262606,410.527706 929.089059,424.259717 934.695211,432.56371 C940.671139,440.87208 950.357583,445 963.703539,445 C981.610071,445 1000.02664,434.380345 1019,413.044731 Z" id="Path"></path>
                <path d="M53.8171018,23.1177471 C14.9601691,23.2725687 11.458971,42.8464329 8.70893905,63.2076752 C4.91915738,92.0044788 36.705792,135.531445 55.2854831,135.810123 C73.9415639,136.115343 104.59084,91.7036827 100.389402,63.2076752 C97.2998599,42.4748612 92.5976448,22.9673491 53.8171018,23.1177471 Z" id="Path"></path>
                <polygon id="Path" points="53.0841961 23.1168831 80.3819998 1.00467742 89.5824176 19.9726149 53.0841961 23.1168831 16.7967033 21.8796415 24.9434772 0"></polygon>
            </g>
        </g>
    </g>
</svg>
